<svg width="34" height="35" viewBox="0 0 34 35" fill="none" xmlns="http://www.w3.org/2000/svg">
<path d="M32.5789 25.2366V9.04969C32.5792 8.94115 32.5502 8.83455 32.495 8.74116C32.4398 8.6477 32.3604 8.5709 32.2652 8.51877L26.4432 5.38155H26.3889L16.579 0.0724035C16.491 0.0248806 16.3925 0 16.2925 0C16.1924 0 16.0939 0.0248806 16.0059 0.0724035L0.319758 8.51877C0.223421 8.57006 0.142806 8.64656 0.0864993 8.74007C0.0301861 8.83352 0.000297862 8.94055 2.23858e-06 9.04969V25.9424C-0.000293385 26.051 0.0286958 26.1576 0.083905 26.251C0.13912 26.3444 0.218516 26.4213 0.313725 26.4734L15.9999 34.9197C16.0879 34.9673 16.1864 34.9921 16.2864 34.9921C16.3865 34.9921 16.485 34.9673 16.573 34.9197L21.1159 32.4703C21.6288 33.14 21.5926 34.6422 22.6122 34.9378C23.6318 35.2335 24.4704 34.057 25.2486 33.8157C26.0269 34.057 26.9258 35.2878 27.8851 34.9378C28.8444 34.5879 28.8987 33.1822 29.3693 32.4824C30.1536 32.241 31.5834 32.6935 32.1566 31.8368C32.7297 30.9801 31.9152 29.8097 31.9152 28.9831C31.9575 28.8504 32.3496 28.5789 32.5789 28.416C34.1777 27.4206 34.1897 26.232 32.5789 25.2366ZM18.395 23.7585C18.5175 24.0432 18.587 24.3478 18.6001 24.6574C18.2261 25.1581 17.2065 25.5865 16.8928 26.2079V17.8581L31.3723 10.0572V21.3211C30.8172 21.1521 29.8459 21.3211 29.3632 21.1582C28.8926 20.4704 28.8866 18.9923 27.8851 18.7027C26.8836 18.4131 26.0269 19.5835 25.2486 19.8249C24.9511 19.7164 24.6768 19.5526 24.4402 19.3422C23.0043 18.1356 21.9304 18.5458 21.484 20.3316C21.4101 20.6264 21.2855 20.9061 21.1159 21.1582C20.8214 21.2379 20.5149 21.2644 20.211 21.2366C18.389 21.1159 17.7012 22.0269 18.395 23.7585ZM16.2894 1.2911L20.0179 3.29409L6.09949 11.3242L1.87027 9.04969L16.2894 1.2911ZM15.6861 33.3813L1.20663 25.5805V10.0572L5.71941 12.4705V19.0888C5.71989 19.2074 5.7553 19.3233 5.82131 19.4218C5.88725 19.5204 5.98076 19.5973 6.0902 19.643C6.19964 19.6887 6.32013 19.7012 6.43656 19.6788C6.55306 19.6564 6.66033 19.6002 6.74504 19.5172L8.40415 17.8762L10.2563 22.3226C10.3016 22.4327 10.3784 22.5271 10.4772 22.5936C10.576 22.6602 10.6923 22.696 10.8114 22.6966H10.932C11.0704 22.6684 11.1944 22.5926 11.2826 22.4824C11.3708 22.3722 11.4175 22.2345 11.4147 22.0933V15.5534L15.6861 17.8581V33.3813ZM16.2894 16.8083L12.2593 14.6364L26.1717 6.60024L30.7147 9.04969L16.2894 16.8083ZM16.8928 33.3813V27.4326C17.2065 28.0359 18.2261 28.4824 18.6001 28.9831C18.587 29.2928 18.5175 29.5974 18.395 29.8821C18.0451 30.7327 17.9124 31.9333 18.9501 32.2953L16.8928 33.3813ZM31.879 27.4326C30.0027 28.6393 30.8594 29.4658 31.1913 31.1128C30.5095 31.3361 29.2848 30.9922 28.6574 31.505C28.0299 32.0178 27.9032 33.1822 27.5412 33.7855C26.8655 33.5502 26.0691 32.5789 25.2547 32.5789C24.4402 32.5789 23.6318 33.4899 23.0043 33.7855C22.576 33.1822 22.5277 31.9333 21.852 31.4929C21.1763 31.0525 20.0059 31.2938 19.3362 31.1309C19.3362 30.407 20.036 29.3572 19.7464 28.597C19.5473 27.8368 18.3407 27.3904 17.9365 26.7871C17.9727 26.6423 18.4071 26.3346 18.6363 26.1838C20.5126 24.9771 19.662 24.1506 19.3241 22.5036C20.0119 22.2803 21.2306 22.6242 21.858 22.1114C22.4855 21.5986 22.6182 20.4101 22.9742 19.8309C23.6559 20.0662 24.4523 21.0375 25.2607 21.0375C26.0691 21.0375 26.8836 20.1265 27.5171 19.8309C27.9394 20.398 27.9877 21.6831 28.6634 22.1174C29.3391 22.5518 30.5095 22.3165 31.1792 22.4794C31.1792 23.2034 30.4794 24.2532 30.769 25.0133C31.0585 25.7735 32.1686 26.22 32.5789 26.8233C32.5306 26.9681 32.1083 27.2697 31.879 27.4326Z" fill="#FFC46B"/>
<path d="M25.3386 24.7962C25.3386 24.2266 25.1123 23.6803 24.7095 23.2775C24.3067 22.8747 23.7604 22.6484 23.1908 22.6484C22.6211 22.6484 22.0748 22.8747 21.672 23.2775C21.2693 23.6803 21.043 24.2266 21.043 24.7962C21.043 25.3659 21.2693 25.9122 21.672 26.3149C22.0748 26.7178 22.6211 26.944 23.1908 26.944C23.7604 26.944 24.3067 26.7178 24.7095 26.3149C25.1123 25.9122 25.3386 25.3659 25.3386 24.7962Z" fill="#FFC46B"/>
<path d="M27.2699 26.7207C26.7002 26.7207 26.1539 26.947 25.7511 27.3498C25.3484 27.7526 25.1221 28.2989 25.1221 28.8685C25.1221 29.4381 25.3484 29.9844 25.7511 30.3872C26.1539 30.79 26.7002 31.0163 27.2699 31.0163C27.8395 31.0163 28.3858 30.79 28.7886 30.3872C29.1914 29.9844 29.4177 29.4381 29.4177 28.8685C29.4177 28.2989 29.1914 27.7526 28.7886 27.3498C28.3858 26.947 27.8395 26.7207 27.2699 26.7207Z" fill="#FFC46B"/>
<path d="M28.3559 23.7224C28.2998 23.6659 28.2331 23.621 28.1596 23.5903C28.0861 23.5598 28.0072 23.5439 27.9276 23.5439C27.8479 23.5439 27.7691 23.5598 27.6955 23.5903C27.622 23.621 27.5553 23.6659 27.4992 23.7224L21.8824 29.3453C21.7835 29.4607 21.7319 29.6092 21.7378 29.761C21.7436 29.9129 21.8065 30.0569 21.914 30.1643C22.0214 30.2718 22.1655 30.3347 22.3173 30.3406C22.4691 30.3465 22.6176 30.2948 22.733 30.1959L28.3559 24.5731C28.4682 24.4601 28.5314 24.3071 28.5314 24.1477C28.5314 23.9883 28.4682 23.8355 28.3559 23.7224Z" fill="#FFC46B"/>
</svg>
