<svg width="120" height="120" viewBox="0 0 120 120" fill="none" xmlns="http://www.w3.org/2000/svg">
<path fill-rule="evenodd" clip-rule="evenodd" d="M53.245 0H66.755L63.5907 46.6819L84.15 4.6609L95.8499 11.4159L69.6751 50.3251L108.584 24.1504L115.339 35.8504L73.2175 56.4588L120 53.2455V66.7554L73.2199 63.5422L115.339 84.1495L108.584 95.8495L69.6777 69.6765L95.8505 108.583L84.1505 115.338L63.5415 73.2148L66.755 120H53.245L56.4508 73.3283L35.8499 115.339L24.15 108.584L50.1685 69.8315L11.4159 95.8504L4.6609 84.1504L46.571 63.5987L0 66.7554V53.2455L46.5713 56.4022L4.66091 35.8504L11.4159 24.1504L50.1702 50.1704L24.1501 11.4159L35.85 4.6609L56.4018 46.571L53.245 0Z" fill="#4A4F42"/>
</svg>
