<svg width="58" height="96" viewBox="0 0 58 96" fill="none" xmlns="http://www.w3.org/2000/svg">
<path d="M54.2763 33.9283C62.0239 21.138 54.269 1.78808 51.6803 0.390715C50.234 -0.389037 49.3027 5.77733 43.7427 12.2089C44.4304 15.3186 44.8435 18.2821 45.0475 21.1311C44.0058 18.9523 42.8938 16.7357 41.6951 14.4711C39.1839 17.0604 36.0492 19.6537 32.5358 22.1832C32.2865 27.2108 31.5183 31.9579 30.6761 36.6648C29.5016 33.1362 28.3042 29.5973 27.0058 26.0021C21.3763 29.7654 15.6124 33.4637 11.5425 37.2594C8.7801 39.8254 7.19205 43.4347 7.14084 47.2465C7.09266 50.9086 7.34585 54.7333 8.06226 58.8073C6.16552 55.302 4.47924 51.911 2.9542 48.606C-2.4251 59.6988 3.95559 73.3053 9.53229 77.8716C10.7765 81.4456 12.3508 84.1035 13.2302 85.2346C15.7179 88.9518 18.2768 92.1407 22.6597 95.7822C22.6585 95.7782 16.9385 83.2638 16.9385 83.2638C16.4359 82.3258 15.8342 80.7603 15.2486 78.7793C18.5726 76.6004 21.603 69.6256 28.8436 62.5569C24.8571 62.8927 21.0322 63.3145 17.4157 63.8495C21.0821 61.6905 25.3317 59.8447 29.9347 58.1906C33.4817 56.9177 36.7743 54.9264 39.5491 52.3535C44.2611 47.948 49.3013 42.6268 52.8115 36.6643C50.1691 36.7575 47.4885 36.8346 44.7843 36.8942C48.0476 35.959 51.2318 34.9818 54.2763 33.9283Z" fill="white"/>
</svg>
