<svg width="36" height="36" viewBox="0 0 36 36" fill="none" xmlns="http://www.w3.org/2000/svg">
<path d="M1.02941 3.35648L0.835141 4.48969C0.816754 4.59963 0.829374 4.71251 0.871583 4.81566C0.913791 4.91882 0.983919 5.00817 1.07409 5.07368C1.16426 5.1392 1.27091 5.17828 1.38206 5.18654C1.49322 5.1948 1.60447 5.17192 1.70334 5.12046L2.72263 4.58563L3.74193 5.12046C3.84089 5.17202 3.95228 5.19494 4.06357 5.18664C4.17485 5.17834 4.28161 5.13915 4.37183 5.07348C4.46206 5.00781 4.53216 4.91826 4.57426 4.81491C4.61636 4.71156 4.62878 4.59852 4.61012 4.48849L4.41586 3.35648L5.24089 2.55244C5.32105 2.47436 5.37777 2.37541 5.40462 2.26677C5.43147 2.15813 5.42738 2.04415 5.39282 1.93772C5.35826 1.83129 5.2946 1.73665 5.20905 1.66451C5.12349 1.59238 5.01946 1.54563 4.90872 1.52955L3.76951 1.36406L3.26226 0.332775C3.20705 0.239431 3.12847 0.162083 3.03426 0.108354C2.94006 0.0546243 2.83348 0.0263672 2.72503 0.0263672C2.61658 0.0263672 2.51 0.0546243 2.4158 0.108354C2.32159 0.162083 2.24301 0.239431 2.1878 0.332775L1.67816 1.36406L0.538946 1.52955C0.428006 1.54526 0.323687 1.59174 0.237822 1.66373C0.151956 1.73571 0.0879791 1.83031 0.0531463 1.93681C0.0183136 2.04331 0.0140189 2.15743 0.0407493 2.26624C0.0674796 2.37506 0.124166 2.4742 0.204378 2.55244L1.02941 3.35648Z" fill="#FFC46B"/>
<path d="M16.1816 6.29456C16.1465 6.18982 16.0831 6.09682 15.9984 6.02583C15.9138 5.95483 15.8112 5.9086 15.7019 5.89224L13.9469 5.62423L13.1579 3.94119C13.1095 3.83819 13.0327 3.75109 12.9366 3.69008C12.8406 3.62908 12.7291 3.59668 12.6153 3.59668C12.5015 3.59668 12.39 3.62908 12.2939 3.69008C12.1978 3.75109 12.1211 3.83819 12.0726 3.94119L11.2818 5.62543L9.52681 5.89344C9.41782 5.91005 9.31552 5.9564 9.23115 6.02738C9.14679 6.09836 9.08363 6.19122 9.04862 6.29576C9.0136 6.40031 9.00809 6.51248 9.03269 6.61995C9.05729 6.72743 9.11105 6.82603 9.18805 6.90494L10.476 8.22403L10.1708 10.0947C10.1527 10.2058 10.1662 10.3197 10.2098 10.4235C10.2534 10.5272 10.3253 10.6166 10.4173 10.6814C10.5093 10.7462 10.6177 10.7838 10.7301 10.7899C10.8424 10.796 10.9543 10.7704 11.0528 10.7159L12.6153 9.8531L14.1778 10.7165C14.2763 10.771 14.3881 10.7966 14.5005 10.7905C14.6128 10.7844 14.7212 10.7468 14.8133 10.682C14.9053 10.6172 14.9772 10.5278 15.0208 10.4241C15.0644 10.3203 15.0779 10.2064 15.0598 10.0953L14.7546 8.22462L16.0425 6.90554C16.1198 6.82643 16.1737 6.72749 16.1982 6.61967C16.2228 6.51184 16.217 6.39933 16.1816 6.29456Z" fill="#FFC46B"/>
<path d="M35.9999 23.3828H33.6016V24.582H35.9999V23.3828Z" fill="#FFC46B"/>
<path d="M7.81934 19.1855H16.4935L10.5031 22.8717C10.3918 22.9401 10.3059 23.043 10.2584 23.1646C10.2109 23.2863 10.2045 23.4202 10.24 23.5458C10.2756 23.6715 10.3512 23.7821 10.4554 23.8609C10.5596 23.9396 10.6867 23.9822 10.8173 23.9822H16.2135V22.783H12.9356L18.926 19.0968C19.0373 19.0284 19.1232 18.9255 19.1707 18.8039C19.2182 18.6822 19.2246 18.5483 19.1891 18.4227C19.1535 18.297 19.0779 18.1864 18.9737 18.1076C18.8695 18.0289 18.7425 17.9863 18.6119 17.9863H7.81934V19.1855Z" fill="#FFC46B"/>
<path d="M6.62007 17.9863H5.4209V19.1855H6.62007V17.9863Z" fill="#FFC46B"/>
<path d="M33.6015 32.376H29.5303V33.5751H33.6015V32.376Z" fill="#FFC46B"/>
<path d="M27.2961 4.01009C25.9535 2.87006 24.4471 1.93848 22.8274 1.24661C22.7097 1.19742 22.5795 1.18701 22.4555 1.2169C22.3316 1.24679 22.2203 1.31542 22.1381 1.41282C22.0558 1.51022 22.0067 1.63132 21.9979 1.75853C21.9891 1.88573 22.0211 2.01243 22.0893 2.1202C23.979 5.10361 24.8699 8.6112 24.6327 12.1348C24.3955 15.6584 23.0427 19.015 20.7702 21.7182C18.4387 24.5868 15.1954 26.5709 11.5798 27.3405C7.96415 28.1101 4.19402 27.6188 0.896363 25.9483C0.782251 25.8901 0.652503 25.87 0.52613 25.8909C0.399757 25.9118 0.2834 25.9726 0.194109 26.0645C0.104817 26.1563 0.047284 26.2743 0.0299379 26.4012C0.0125919 26.5282 0.036345 26.6573 0.0977171 26.7697C1.14161 28.6873 2.53172 30.395 4.19768 31.8062C7.3588 34.5017 11.3785 35.9799 15.5328 35.9745C16.0525 35.9745 16.5749 35.9516 17.1001 35.9056C19.4718 35.6998 21.7785 35.0225 23.8849 33.9133C25.9912 32.8041 27.8549 31.2854 29.3664 29.4463C32.4266 25.7823 33.9245 21.0625 33.5372 16.3044C33.1499 11.5463 30.9085 7.13096 27.2961 4.01009Z" fill="#FFC46B"/>
</svg>
