<svg width="42" height="38" viewBox="0 0 42 38" fill="none" xmlns="http://www.w3.org/2000/svg">
<path d="M41.2398 4.02145C41.2016 3.96172 41.15 3.91169 41.0892 3.87532C41.0283 3.83894 40.9598 3.81722 40.8891 3.81186C40.8184 3.80649 40.7474 3.81764 40.6817 3.84442C40.6161 3.8712 40.5575 3.91288 40.5107 3.96616C38.6273 6.11066 37.0686 7.46399 34.7597 8.95915C34.7578 8.96045 34.7565 8.96202 34.7547 8.9632C34.7529 8.96438 34.7509 8.96503 34.7491 8.96621C32.5119 10.4604 30.1788 11.8057 27.7648 12.9931C27.0727 13.33 26.6764 13.9604 26.7305 14.6385C26.7713 15.1514 27.0222 15.6717 27.4764 16.185C27.5657 16.2799 27.6271 16.3977 27.6536 16.5253C27.6802 16.6529 27.671 16.7854 27.627 16.9081C27.3613 17.5907 26.6706 18.5735 24.9049 19.4925C24.7104 19.0727 24.4787 18.6711 24.2128 18.2924C24.2122 18.2713 24.2128 18.2506 24.2128 18.2294C24.1475 16.7571 23.9535 14.1279 23.3871 13.0614C22.6971 11.7616 20.8384 12.1369 19.833 12.569C19.1355 12.7783 18.3915 12.7754 17.6957 12.5608C17.6355 12.5415 17.572 12.5349 17.5092 12.5414C17.4464 12.5479 17.3856 12.5673 17.3306 12.5984C17.2381 12.6507 16.4146 13.1563 15.9797 14.744C15.958 14.8232 15.9581 14.9068 15.9799 14.986C16.0016 15.0652 16.0443 15.1371 16.1035 15.1941C16.1626 15.2511 16.236 15.2912 16.316 15.31C16.3959 15.3289 16.4795 15.3259 16.5579 15.3013C16.5674 15.2983 17.5214 15.0092 18.1954 15.3809C18.475 15.5406 18.6824 15.8019 18.7743 16.1106C18.6427 16.3501 18.4969 16.5814 18.3377 16.8034C18.2042 16.9496 17.8449 17.4283 17.8834 18.2861C17.6153 18.6662 17.382 19.0696 17.186 19.4915C15.4208 18.5725 14.7307 17.5898 14.4651 16.9074C14.4212 16.7847 14.412 16.6523 14.4386 16.5247C14.4652 16.3971 14.5264 16.2793 14.6157 16.1843C15.0698 15.6712 15.3209 15.1511 15.3618 14.6381C15.4157 13.96 15.0196 13.3296 14.3276 12.9926C11.9137 11.8054 9.58072 10.4604 7.3437 8.96634C7.34201 8.96516 7.33991 8.96451 7.33821 8.96333C7.33652 8.96215 7.33495 8.96059 7.33312 8.95928C5.02392 7.46373 3.46525 6.11053 1.58203 3.96629C1.53524 3.91301 1.4767 3.87133 1.41104 3.84455C1.34538 3.81777 1.2744 3.80663 1.20369 3.81199C1.13298 3.81735 1.06449 3.83907 1.00362 3.87545C0.94275 3.91182 0.891168 3.96185 0.852948 4.02158C0.827852 4.06079 -1.57218 7.92251 2.28811 11.3257C1.99794 12.2276 1.48766 14.7521 4.05813 16.5423C3.85489 17.4513 3.63517 19.8652 6.41203 21.5484C6.48575 22.4302 6.98831 25.0981 10.3547 25.9062C10.897 26.0386 11.453 26.1067 12.0112 26.1089C12.1907 26.1089 12.3684 26.1014 12.5443 26.0863C13.5834 26.0294 14.5999 25.7599 15.5308 25.2945C15.8702 25.1968 16.2217 25.1475 16.5749 25.1481C16.6906 25.5088 16.8351 25.8597 17.0071 26.1974C12.8953 27.6183 12.5826 31.0783 12.5709 31.2308C12.5661 31.2936 12.5744 31.3567 12.5952 31.4162C12.6159 31.4756 12.6488 31.5302 12.6916 31.5764C12.7344 31.6226 12.7863 31.6594 12.844 31.6847C12.9018 31.7099 12.9641 31.7229 13.0271 31.7229C13.0339 31.7229 13.0402 31.7229 13.0476 31.7229C13.874 31.6936 14.6914 31.5415 15.473 31.2718C15.138 32.4019 15.0728 33.5948 15.2827 34.7546C15.3099 34.8817 15.3865 34.9928 15.4956 35.0635C15.5503 35.0985 15.6121 35.1209 15.6766 35.1288C15.741 35.1367 15.8065 35.13 15.868 35.1092C16.8513 34.753 17.75 34.1967 18.5073 33.4754C18.5688 34.2836 18.8054 35.0687 19.2006 35.7763C19.5958 36.484 20.1402 37.0972 20.796 37.5734C20.8704 37.6221 20.9574 37.648 21.0463 37.648C21.1352 37.648 21.2222 37.6221 21.2966 37.5734C21.9526 37.0971 22.497 36.4839 22.8922 35.7761C23.2874 35.0684 23.5239 34.2831 23.5853 33.4749C24.3427 34.1961 25.2414 34.7525 26.2248 35.1087C26.3503 35.1406 26.4831 35.1243 26.5972 35.0629C26.6546 35.032 26.7039 34.9879 26.7409 34.9342C26.778 34.8805 26.8017 34.8188 26.8102 34.7541C27.0201 33.5942 26.9549 32.4012 26.6198 31.2711C27.3082 31.515 28.9413 31.8277 29.3942 31.5838C29.5096 31.5217 29.5318 31.3616 29.522 31.2309C29.5105 31.0789 29.1981 27.6182 25.0854 26.1971C25.2571 25.8598 25.4014 25.5091 25.5167 25.1486C25.8702 25.1479 26.2219 25.197 26.5616 25.2946C27.6698 25.7922 28.8643 26.0688 30.0784 26.109H30.0835C30.6409 26.1066 31.1961 26.0385 31.7376 25.9062C35.1042 25.0981 35.6065 22.4305 35.6802 21.5484C38.4571 19.865 38.2376 17.4511 38.0344 16.5423C40.6049 14.7517 40.0944 12.2272 39.8043 11.3257C43.6648 7.92238 41.2651 4.06079 41.2398 4.02145ZM16.3623 24.1868C16.3623 24.1943 16.3647 24.213 16.3674 24.2372C15.9972 24.2529 15.6302 24.3131 15.2743 24.4162C14.9949 24.5057 14.694 24.5022 14.4167 24.4063C14.1394 24.3104 13.9007 24.1272 13.7362 23.8843C13.547 23.569 13.4162 23.2221 13.3502 22.8604C13.3868 22.8604 13.4235 22.8617 13.4625 22.8617C13.8856 22.8644 14.3076 22.8168 14.7195 22.7199C14.7778 22.7056 14.8328 22.6798 14.8812 22.6442C14.9296 22.6086 14.9706 22.5638 15.0017 22.5124C15.0328 22.461 15.0535 22.4039 15.0625 22.3445C15.0716 22.2851 15.0688 22.2245 15.0545 22.1661C15.0401 22.1078 15.0144 22.0528 14.9788 22.0044C14.9432 21.956 14.8984 21.915 14.847 21.8839C14.7955 21.8528 14.7385 21.8321 14.6791 21.8231C14.6196 21.814 14.559 21.8168 14.5007 21.8311C13.9696 21.9486 13.4226 21.9762 12.8824 21.9128C12.8777 21.9128 12.8731 21.9128 12.8683 21.9128C12.8634 21.9128 12.8582 21.9105 12.853 21.9101C12.7675 21.9028 10.9194 21.714 10.5984 19.34C11.0178 19.4719 11.4541 19.542 11.8937 19.5479C12.0151 19.5479 12.1314 19.4997 12.2172 19.414C12.303 19.3282 12.3512 19.2118 12.3512 19.0905C12.3512 18.9691 12.303 18.8528 12.2172 18.767C12.1314 18.6812 12.0151 18.633 11.8937 18.633C11.3414 18.614 10.7986 18.4833 10.2982 18.2486C10.2939 18.2464 10.2894 18.2456 10.2851 18.2436C10.2785 18.2404 10.2721 18.2364 10.2654 18.2337C10.0365 18.1392 8.17042 17.2895 8.83101 14.9791C9.46057 15.3113 10.1382 15.5431 10.8393 15.6661C10.9589 15.6824 11.0802 15.6508 11.1766 15.5782C11.273 15.5055 11.3368 15.3977 11.354 15.2782C11.3713 15.1587 11.3406 15.0372 11.2687 14.9403C11.1967 14.8433 11.0894 14.7787 10.97 14.7606C9.91928 14.608 8.83049 13.9345 8.81964 13.9277C8.81402 13.9243 8.80801 13.9223 8.80226 13.9192C8.79651 13.9161 8.7918 13.9116 8.78579 13.9086C8.68122 13.8542 6.36131 12.6175 7.28894 10.0307C9.423 11.4255 11.6396 12.6898 13.9266 13.8165C14.1977 13.9485 14.4773 14.2147 14.4494 14.5666C14.4246 14.8773 14.25 15.2179 13.9303 15.5793C13.7292 15.7999 13.593 16.0719 13.5369 16.3651C13.4807 16.6584 13.5068 16.9614 13.6121 17.2407C13.9389 18.0812 14.7677 19.283 16.8427 20.3447C16.4303 21.5811 16.267 22.887 16.3623 24.1868ZM20.4665 13.3075C21.1079 13.0925 22.2465 12.8637 22.5795 13.4905C22.988 14.2598 23.2189 16.4638 23.2984 18.2698C23.3111 18.5263 23.2802 18.7831 23.2069 19.0293C22.8855 20.0727 22.202 20.9671 21.2795 21.551L20.4068 19.9956C20.3531 19.9031 20.2693 19.8319 20.1693 19.7939C20.0693 19.756 19.9593 19.7536 19.8578 19.7871L19.3975 19.9467C18.3803 18.2239 18.949 17.4945 19.004 17.4309C19.0268 17.4119 19.0464 17.3894 19.0622 17.3642C20.304 15.6465 20.4638 14.0136 20.4665 13.3075ZM18.6318 14.5765C18.1641 14.3398 17.6394 14.2389 17.1173 14.2852C17.2469 13.9931 17.429 13.7273 17.6545 13.5009C18.2708 13.6558 18.9125 13.6815 19.5393 13.5764C19.502 14.087 19.3988 14.5907 19.2321 15.0748C19.0657 14.8718 18.8619 14.7027 18.6318 14.5765ZM13.5873 30.763C13.8403 29.821 14.6894 27.8994 17.4788 27.003C17.6836 27.3099 17.9084 27.6029 18.1517 27.8802C17.5802 28.9346 16.2981 30.4567 13.5873 30.763ZM21.0482 36.6118C20.437 36.0816 19.9703 35.405 19.6917 34.6454C19.4131 33.8857 19.3317 33.0678 19.4552 32.2682C19.5956 31.2254 19.8621 30.3531 20.2463 29.6641C20.4293 29.7827 20.6193 29.8994 20.8205 30.0141C20.8894 30.0533 20.9673 30.0739 21.0465 30.0739C21.1258 30.0739 21.2037 30.0533 21.2726 30.0141C21.4737 29.8998 21.6634 29.7825 21.8469 29.664C22.231 30.3531 22.4973 31.2258 22.6375 32.2682C22.964 34.694 21.6267 36.1188 21.0482 36.6118ZM21.0465 29.0866C17.5669 27.0002 17.2848 24.2321 17.275 24.1219C17.1501 22.1431 17.6137 20.6682 18.1108 19.6836C18.1774 20.2078 18.3593 20.7107 18.6434 21.1563C18.7028 21.2392 18.7904 21.2976 18.8898 21.3206C18.9891 21.3436 19.0934 21.3296 19.1832 21.2812L19.4266 21.1524C19.5053 21.1105 19.5967 21.099 19.6833 21.1201C19.7699 21.1413 19.8457 21.1935 19.8962 21.267C20.2349 21.8069 20.5243 22.3761 20.761 22.9679C20.7858 23.0245 20.8224 23.0752 20.8685 23.1165C20.9145 23.1578 20.9689 23.1887 21.0279 23.2073C21.0869 23.2258 21.1492 23.2314 21.2106 23.2238C21.2719 23.2162 21.331 23.1955 21.3837 23.1632C22.139 22.6998 23.6329 21.5671 23.9875 19.6976C24.4791 20.677 24.9427 22.1474 24.8185 24.1126C24.8081 24.2318 24.5259 27.0002 21.0465 29.0866ZM28.5059 30.763C25.7937 30.4563 24.5114 28.9321 23.9412 27.8801C24.1844 27.6028 24.4091 27.3099 24.6138 27.0032C27.404 27.8996 28.2531 29.8219 28.5059 30.763ZM33.3076 13.907C33.3011 13.9104 33.2959 13.915 33.2896 13.9185C33.2833 13.9221 33.278 13.9235 33.2725 13.9269C33.2616 13.9337 32.1728 14.6072 31.1221 14.7598C31.0626 14.7684 31.0055 14.7887 30.9538 14.8194C30.9022 14.8501 30.8571 14.8907 30.8212 14.9389C30.7853 14.987 30.7592 15.0418 30.7444 15.1C30.7296 15.1583 30.7264 15.2188 30.7351 15.2783C30.7437 15.3377 30.764 15.3949 30.7947 15.4465C30.8254 15.4982 30.866 15.5432 30.9142 15.5792C30.9623 15.6151 31.0171 15.6412 31.0753 15.656C31.1336 15.6708 31.1941 15.6739 31.2536 15.6653C31.9548 15.5424 32.6324 15.3105 33.2619 14.9782C33.9226 17.2893 32.0566 18.1391 31.8293 18.2328C31.8215 18.2359 31.8144 18.2404 31.8069 18.2439C31.8026 18.2458 31.7981 18.2468 31.7938 18.2489C31.2942 18.4847 30.7514 18.6154 30.1992 18.6329C30.0778 18.6329 29.9615 18.6811 29.8757 18.7669C29.7899 18.8527 29.7417 18.969 29.7417 19.0903C29.7417 19.2117 29.7899 19.328 29.8757 19.4138C29.9615 19.4996 30.0778 19.5478 30.1992 19.5478C30.6388 19.5418 31.0751 19.4718 31.4945 19.3399C31.1735 21.7139 29.3257 21.9026 29.2428 21.9098C29.2369 21.9098 29.2314 21.9119 29.2255 21.9126C29.2197 21.9132 29.2157 21.9126 29.2108 21.9126C28.6704 21.976 28.1233 21.9484 27.5921 21.8309C27.5337 21.8165 27.4731 21.8138 27.4137 21.8229C27.3543 21.8319 27.2973 21.8526 27.2458 21.8837C27.1944 21.9148 27.1496 21.9558 27.114 22.0042C27.0784 22.0526 27.0527 22.1076 27.0384 22.1659C27.024 22.2243 27.0213 22.2849 27.0304 22.3443C27.0394 22.4037 27.0601 22.4608 27.0912 22.5122C27.1223 22.5636 27.1633 22.6084 27.2117 22.644C27.2601 22.6796 27.3151 22.7053 27.3734 22.7197C27.7853 22.8166 28.2073 22.8642 28.6304 22.8615C28.6696 22.8615 28.7061 22.8615 28.7427 22.8602C28.6766 23.2219 28.5459 23.5687 28.3567 23.884C28.1922 24.127 27.9534 24.3101 27.6761 24.406C27.3988 24.5018 27.0979 24.5053 26.8185 24.4158C26.4625 24.3127 26.0954 24.2526 25.7251 24.2368C25.7285 24.208 25.7303 24.1878 25.731 24.1793C25.8254 22.8816 25.6614 21.5781 25.2485 20.3442C27.3243 19.2826 28.1528 18.0806 28.4801 17.2397C28.5855 16.9604 28.6116 16.6573 28.5555 16.3641C28.4994 16.0709 28.3632 15.7989 28.1621 15.5783C27.8423 15.2169 27.6678 14.8762 27.6431 14.5655C27.615 14.2137 27.8946 13.9474 28.1659 13.8154C30.4529 12.6887 32.6695 11.4244 34.8036 10.0296C35.7315 12.617 33.4113 13.8535 33.3076 13.907Z" fill="#FFC46B"/>
<path d="M25.1133 3.32727C25.0871 3.24561 25.0384 3.17297 24.9729 3.11764C24.9073 3.06231 24.8275 3.02652 24.7426 3.01436L22.47 2.68995L21.4551 0.669226C21.417 0.593408 21.3587 0.529667 21.2865 0.485124C21.2143 0.440581 21.1311 0.416992 21.0463 0.416992C20.9614 0.416992 20.8783 0.440581 20.8061 0.485124C20.7339 0.529667 20.6755 0.593408 20.6374 0.669226L19.6226 2.68995L17.3499 3.01436C17.2649 3.02649 17.1851 3.06226 17.1195 3.11759C17.0539 3.17292 17.0052 3.24558 16.979 3.32728C16.9527 3.40897 16.95 3.4964 16.971 3.57958C16.9921 3.66277 17.0362 3.73834 17.0981 3.79769L18.7378 5.36812L18.3511 7.58373C18.3383 7.66757 18.3483 7.7533 18.3799 7.83197C18.4116 7.91065 18.4638 7.97939 18.5311 8.03101C18.6016 8.07706 18.6826 8.10465 18.7666 8.11125C18.8506 8.11785 18.9349 8.10325 19.0118 8.06878L21.0463 7.01777L23.0808 8.06878C23.1565 8.10788 23.2416 8.12507 23.3266 8.1184C23.4115 8.11173 23.4929 8.08147 23.5616 8.03104C23.6302 7.9806 23.6835 7.91199 23.7152 7.83294C23.747 7.75389 23.7561 7.66753 23.7414 7.5836L23.3545 5.36812L24.9942 3.79769C25.0562 3.73833 25.1002 3.66275 25.1213 3.57957C25.1423 3.49639 25.1396 3.40896 25.1133 3.32727ZM22.5456 4.87667C22.4914 4.92861 22.4507 4.9931 22.4273 5.06445C22.4039 5.13579 22.3984 5.21181 22.4114 5.28578L22.6815 6.83334L21.2568 6.09708C21.1919 6.06354 21.1199 6.04604 21.0468 6.04604C20.9738 6.04604 20.9018 6.06354 20.8369 6.09708L19.4122 6.83334L19.6822 5.28578C19.6951 5.21181 19.6896 5.13579 19.6662 5.06445C19.6428 4.9931 19.6022 4.92861 19.548 4.87667L18.4108 3.78788L19.9895 3.56255C20.0626 3.55211 20.132 3.52415 20.192 3.48104C20.2519 3.43793 20.3005 3.38096 20.3336 3.31499L21.0463 1.89382L21.7596 3.31433C21.7928 3.3803 21.8414 3.43728 21.9013 3.48038C21.9612 3.52349 22.0307 3.55146 22.1038 3.56189L23.6823 3.78723L22.5456 4.87667Z" fill="#FFC46B"/>
<path d="M16.5448 6.27722C16.5186 6.19554 16.4699 6.12289 16.4043 6.06756C16.3387 6.01223 16.2589 5.97645 16.174 5.96431L14.5093 5.72669L13.7664 4.24735C13.7283 4.17153 13.6699 4.10779 13.5977 4.06325C13.5255 4.01871 13.4424 3.99512 13.3575 3.99512C13.2727 3.99512 13.1895 4.01871 13.1173 4.06325C13.0451 4.10779 12.9867 4.17153 12.9487 4.24735L12.2057 5.72669L10.5409 5.96431C10.456 5.9765 10.3762 6.01231 10.3107 6.06767C10.2452 6.12302 10.1965 6.19569 10.1703 6.27738C10.1441 6.35906 10.1414 6.44647 10.1625 6.52962C10.1836 6.61277 10.2276 6.68832 10.2896 6.74764L11.4892 7.89668L11.2064 9.51744C11.1917 9.60138 11.2008 9.68774 11.2326 9.76679C11.2644 9.84584 11.3176 9.91444 11.3863 9.96487C11.455 10.0153 11.5364 10.0455 11.6213 10.0522C11.7063 10.0588 11.7914 10.0416 11.8671 10.0025L13.3571 9.23237L14.8472 10.0025C14.9248 10.0339 15.0086 10.0469 15.092 10.0403C15.1755 10.0338 15.2562 10.0079 15.3279 9.96472C15.397 9.91463 15.4505 9.8461 15.4823 9.76698C15.5141 9.68786 15.523 9.60137 15.5079 9.51744L15.2251 7.89668L16.4248 6.74764C16.4869 6.68838 16.5311 6.61285 16.5524 6.52966C16.5736 6.44647 16.571 6.35899 16.5448 6.27722ZM14.417 7.40457C14.3628 7.45649 14.3221 7.52098 14.2987 7.59233C14.2753 7.66367 14.2698 7.7397 14.2827 7.81368L14.4491 8.76627L13.5674 8.31089C13.5025 8.27735 13.4305 8.25985 13.3575 8.25985C13.2844 8.25985 13.2124 8.27735 13.1475 8.31089L12.266 8.76627L12.4323 7.81368C12.4452 7.73971 12.4397 7.66369 12.4163 7.59234C12.3929 7.52099 12.3523 7.4565 12.298 7.40457L11.6012 6.73718L12.5719 6.5985C12.6449 6.58807 12.7144 6.5601 12.7743 6.51699C12.8343 6.47388 12.8829 6.41691 12.916 6.35094L13.3574 5.47194L13.7989 6.35094C13.8321 6.41691 13.8807 6.47388 13.9406 6.51699C14.0005 6.5601 14.07 6.58807 14.1431 6.5985L15.1138 6.73718L14.417 7.40457Z" fill="#FFC46B"/>
<path d="M31.9228 6.27722C31.8966 6.19554 31.8479 6.12289 31.7823 6.06756C31.7167 6.01223 31.6369 5.97645 31.552 5.96431L29.8875 5.72669L29.1444 4.24735C29.1063 4.17153 29.0479 4.10779 28.9757 4.06325C28.9035 4.01871 28.8204 3.99512 28.7355 3.99512C28.6507 3.99512 28.5675 4.01871 28.4953 4.06325C28.4231 4.10779 28.3648 4.17153 28.3267 4.24735L27.5838 5.72669L25.9192 5.96431C25.8343 5.97643 25.7544 6.01221 25.6888 6.06754C25.6233 6.12287 25.5746 6.19553 25.5483 6.27723C25.5221 6.35892 25.5193 6.44635 25.5404 6.52953C25.5614 6.61272 25.6055 6.68829 25.6675 6.74764L26.8671 7.89668L26.5841 9.51744C26.5694 9.60138 26.5785 9.68776 26.6103 9.76684C26.6421 9.84591 26.6953 9.91453 26.764 9.96497C26.8327 10.0154 26.9141 10.0457 26.999 10.0523C27.084 10.059 27.1691 10.0418 27.2448 10.0026L28.7355 9.2325L30.2264 10.0026C30.3025 10.0401 30.3873 10.0563 30.4719 10.0497C30.5564 10.0431 30.6377 10.0137 30.707 9.96485C30.7769 9.9155 30.831 9.84704 30.8629 9.76768C30.8949 9.68832 30.9032 9.60143 30.887 9.51744L30.604 7.89668L31.8037 6.74764C31.8657 6.68828 31.9097 6.6127 31.9308 6.52952C31.9518 6.44634 31.9491 6.35891 31.9228 6.27722ZM29.7951 7.40457C29.7408 7.4565 29.7002 7.52099 29.6768 7.59234C29.6534 7.66369 29.6479 7.73971 29.6608 7.81368L29.8271 8.76627L28.9456 8.31089C28.8807 8.27735 28.8087 8.25985 28.7356 8.25985C28.6625 8.25985 28.5905 8.27735 28.5256 8.31089L27.6441 8.76627L27.8104 7.81368C27.8233 7.73971 27.8178 7.66369 27.7944 7.59234C27.771 7.52099 27.7304 7.4565 27.6762 7.40457L26.9792 6.73718L27.95 6.5985C28.0231 6.58805 28.0925 6.56007 28.1524 6.51696C28.2123 6.47386 28.2609 6.4169 28.294 6.35094L28.7355 5.47181L29.1771 6.35094C29.2102 6.41691 29.2588 6.47388 29.3187 6.51699C29.3787 6.5601 29.4481 6.58807 29.5212 6.5985L30.492 6.73718L29.7951 7.40457Z" fill="#FFC46B"/>
<path d="M23.3396 23.1451C23.2216 23.1173 23.0973 23.1374 22.9942 23.2011C22.891 23.2649 22.8173 23.367 22.7894 23.485C22.5911 24.3259 22.0313 25.002 21.6207 25.4052C21.3808 24.9485 21.0532 24.5435 20.6566 24.2134C20.562 24.1385 20.4415 24.104 20.3216 24.1175C20.2016 24.131 20.0918 24.1913 20.0162 24.2854L19.6263 24.7699C18.8364 24.042 19.0435 23.0117 19.055 22.9574C19.0802 22.8396 19.0578 22.7166 18.9929 22.6151C18.9279 22.5136 18.8255 22.4419 18.708 22.4154C18.5904 22.389 18.4672 22.41 18.365 22.4739C18.2629 22.5378 18.19 22.6394 18.1624 22.7567C18.0085 23.4333 18.0829 24.9382 19.4663 25.79C19.5611 25.8484 19.6741 25.8702 19.7838 25.8513C19.8936 25.8324 19.9927 25.774 20.0626 25.6872L20.4137 25.2509C20.6825 25.5353 20.8704 25.8863 20.958 26.2677C20.9722 26.3434 21.0047 26.4144 21.0527 26.4745C21.1007 26.5346 21.1628 26.582 21.2334 26.6125C21.3048 26.6414 21.3822 26.6522 21.4587 26.6438C21.5352 26.6354 21.6085 26.6081 21.6718 26.5644C21.7372 26.5187 23.2719 25.4237 23.6796 23.6949C23.7073 23.5769 23.6871 23.4528 23.6233 23.3497C23.5596 23.2466 23.4576 23.1731 23.3396 23.1451Z" fill="#FFC46B"/>
<path d="M21.3571 15.0601C21.394 15.0602 21.4307 15.0558 21.4666 15.047L21.7071 14.9879C21.7655 14.9736 21.8204 14.9479 21.8689 14.9124C21.9173 14.8768 21.9582 14.832 21.9894 14.7806C22.0205 14.7292 22.0412 14.6722 22.0503 14.6128C22.0594 14.5534 22.0567 14.4928 22.0424 14.4344C22.028 14.376 22.0023 14.3211 21.9668 14.2726C21.9312 14.2242 21.8864 14.1833 21.835 14.1521C21.7836 14.121 21.7266 14.1003 21.6672 14.0912C21.6078 14.0821 21.5472 14.0848 21.4888 14.0991L21.2483 14.1582C21.1396 14.1848 21.0445 14.2502 20.9808 14.3422C20.9171 14.4342 20.8893 14.5463 20.9027 14.6574C20.9161 14.7685 20.9697 14.8708 21.0535 14.945C21.1372 15.0192 21.2452 15.0601 21.3571 15.0601Z" fill="#FFC46B"/>
</svg>
