<svg width="220" height="220" viewBox="0 0 220 220" fill="none" xmlns="http://www.w3.org/2000/svg">
<path d="M218.734 113.989L218.964 110.004L220 110.064L219.469 119.232L218.434 119.172L218.664 115.187L208.373 114.59L208.442 113.392L218.734 113.989Z" fill="white"/>
<path d="M216.966 135.152L205.855 132.854L206.094 131.693L211.221 132.754L212.658 125.794L207.531 124.733L207.773 123.557L218.885 125.856L218.642 127.032L213.69 126.007L212.253 132.967L217.206 133.992L216.966 135.152Z" fill="white"/>
<path d="M202.394 147.161L201.421 146.8L204.212 139.269L214.85 143.219L212.144 150.522L211.171 150.161L213.46 143.984L209.676 142.579L207.635 148.086L206.678 147.73L208.719 142.223L204.767 140.756L202.394 147.161Z" fill="white"/>
<path d="M205.607 164.513L203.084 168.387C202.429 169.393 201.648 170.148 200.739 170.652C199.839 171.163 198.888 171.395 197.886 171.348C196.894 171.307 195.936 170.986 195.013 170.383C194.089 169.781 193.404 169.03 192.957 168.132C192.52 167.239 192.348 166.275 192.442 165.238C192.545 164.208 192.924 163.19 193.579 162.184L196.102 158.31L205.607 164.513ZM194.484 162.697C193.941 163.531 193.629 164.367 193.548 165.205C193.475 166.048 193.617 166.832 193.972 167.554C194.336 168.282 194.898 168.895 195.659 169.391C196.419 169.887 197.201 170.152 198.005 170.186C198.817 170.225 199.59 170.039 200.323 169.626C201.065 169.219 201.708 168.599 202.251 167.765L204.083 164.951L196.316 159.883L194.484 162.697Z" fill="white"/>
<path d="M181.78 177.513L186.225 178.034C186.396 177.795 186.587 177.559 186.797 177.327L188.839 175.063L186.169 172.648L186.973 171.757L195.393 179.37L192.547 182.525C191.577 183.601 190.559 184.212 189.496 184.358C188.432 184.504 187.451 184.171 186.553 183.359C185.895 182.765 185.49 182.092 185.337 181.342C185.185 180.606 185.287 179.839 185.645 179.04L180.9 178.489L181.78 177.513ZM187.577 177.988C186.823 178.823 186.432 179.628 186.403 180.403C186.373 181.178 186.691 181.866 187.357 182.468C188.039 183.084 188.759 183.335 189.518 183.219C190.285 183.111 191.046 182.64 191.799 181.805L193.82 179.565L189.597 175.748L187.577 177.988Z" fill="white"/>
<path d="M171.514 188.357L170.85 187.559L177.015 182.419L184.276 191.146L178.298 196.131L177.634 195.333L182.691 191.117L180.108 188.012L175.599 191.772L174.946 190.986L179.454 187.227L176.757 183.985L171.514 188.357Z" fill="white"/>
<path d="M161.81 197.411L167.193 194.093L166.763 190.794L167.826 190.139L169.359 202.534L168.351 203.155L157.985 196.206L159.061 195.542L161.81 197.411ZM162.693 198.01L168.207 201.776L167.33 195.151L162.693 198.01Z" fill="white"/>
<path d="M147.16 213.56L142.936 203.018L144.004 202.589L147.383 211.022L148.678 202.268L149.205 202.056L156.166 207.443L152.805 199.055L153.873 198.626L158.097 209.168L157.179 209.537L149.474 203.557L148.077 213.191L147.16 213.56Z" fill="white"/>
<path d="M124.952 207.365C126.066 207.214 127.111 207.323 128.088 207.692C129.056 208.074 129.856 208.664 130.487 209.462C131.108 210.262 131.492 211.204 131.639 212.286C131.785 213.369 131.666 214.379 131.28 215.315C130.884 216.253 130.27 217.03 129.437 217.645C128.595 218.273 127.617 218.662 126.504 218.813C125.39 218.964 124.355 218.854 123.4 218.481C122.434 218.11 121.634 217.52 121.001 216.711C120.369 215.913 119.98 214.972 119.833 213.89C119.687 212.807 119.811 211.791 120.205 210.842C120.602 209.904 121.216 209.128 122.049 208.512C122.871 207.899 123.839 207.516 124.952 207.365ZM125.096 208.426C124.207 208.547 123.431 208.854 122.767 209.348C122.105 209.853 121.619 210.487 121.308 211.249C120.998 212.023 120.903 212.849 121.022 213.728C121.141 214.607 121.452 215.373 121.955 216.025C122.459 216.688 123.097 217.169 123.868 217.468C124.64 217.778 125.471 217.873 126.36 217.752C127.249 217.631 128.029 217.318 128.702 216.812C129.366 216.317 129.858 215.683 130.178 214.908C130.489 214.145 130.585 213.324 130.466 212.445C130.347 211.566 130.035 210.796 129.531 210.133C129.018 209.482 128.375 209.001 127.602 208.692C126.82 208.394 125.985 208.305 125.096 208.426Z" fill="white"/>
<path d="M112.043 218.943L112.112 214.481L106.245 214.391L106.261 213.352L112.128 213.443L112.202 208.624L113.401 208.643L113.226 220L105.447 219.88L105.463 218.841L112.043 218.943Z" fill="white"/>
<path d="M85.2943 211.497C84.6042 211.171 84.1189 210.726 83.8386 210.162C83.5453 209.605 83.4836 208.958 83.6536 208.221C83.8721 207.272 84.3936 206.621 85.2181 206.267C86.0296 205.922 87.1197 205.907 88.4886 206.223L93.5744 207.397L91.025 218.465L86.2551 217.364C85.0231 217.079 84.1272 216.612 83.5674 215.961C82.9971 215.307 82.8164 214.527 83.0252 213.621C83.166 213.009 83.4389 212.523 83.8438 212.161C84.2357 211.807 84.7192 211.586 85.2943 211.497ZM90.0784 217.23L91.0034 213.214L87.4813 212.401C86.5863 212.195 85.8577 212.204 85.2957 212.43C84.7312 212.666 84.3736 213.11 84.2231 213.764C84.0726 214.418 84.2006 214.969 84.6073 215.418C85.0116 215.878 85.6612 216.211 86.5562 216.417L90.0784 217.23ZM88.2822 207.191C87.2924 206.962 86.506 206.958 85.9229 207.179C85.3398 207.4 84.9656 207.868 84.8005 208.585C84.4825 209.966 85.3237 210.887 87.3244 211.349L91.2256 212.25L92.1835 208.091L88.2822 207.191Z" fill="white"/>
<path d="M70.838 201.646L71.2206 200.681L78.6785 203.643L74.4941 214.201L67.2622 211.328L67.6448 210.363L73.7617 212.792L75.2502 209.037L69.7961 206.871L70.1727 205.92L75.6268 208.087L77.181 204.165L70.838 201.646Z" fill="white"/>
<path d="M58.2669 197.453L63.7449 200.611L66.4375 198.662L67.519 199.286L57.3616 206.537L56.3363 205.946L57.5042 193.512L58.5998 194.143L58.2669 197.453ZM58.1608 198.515L57.4789 205.163L62.8802 201.236L58.1608 198.515Z" fill="white"/>
<path d="M49.946 188.021C51.0955 188.938 51.7288 189.982 51.846 191.155C51.9632 192.327 51.5202 193.543 50.517 194.804L46.4672 199.893L45.529 199.145L49.5485 194.094C50.37 193.062 50.7502 192.106 50.6893 191.228C50.6284 190.35 50.1585 189.56 49.2795 188.859C48.392 188.151 47.5139 187.866 46.645 188.003C45.7762 188.14 44.9311 188.724 44.1097 189.757L40.0901 194.808L39.1773 194.08L43.2271 188.991C44.2303 187.73 45.3157 187.026 46.4832 186.878C47.6423 186.724 48.7966 187.105 49.946 188.021Z" fill="white"/>
<path d="M32.6596 186.609L35.4065 189.502L34.6546 190.218L28.3345 183.56L29.0864 182.845L31.8333 185.738L39.3058 178.629L40.1321 179.499L32.6596 186.609Z" fill="white"/>
<path d="M27.9173 171.294L31.081 168.973L31.7805 169.928L28.6169 172.25L25.3126 180.308L24.5556 179.274L27.3934 172.363L19.9559 172.992L19.2468 172.024L27.9173 171.294Z" fill="white"/>
<path d="M1.28139 105.626L1.0354 109.61L0 109.546L0.565984 100.379L1.60138 100.443L1.35539 104.427L11.6446 105.064L11.5706 106.263L1.28139 105.626Z" fill="white"/>
<path d="M3.01382 84.9561L14.1254 87.2544L13.8859 88.4144L8.75876 87.3539L7.32221 94.314L12.4494 95.3746L12.2067 96.5505L1.09514 94.2522L1.33784 93.0762L6.29042 94.1006L7.72697 87.1405L2.77439 86.1161L3.01382 84.9561Z" fill="white"/>
<path d="M17.6949 72.6375L18.6662 73.0023L15.8475 80.5224L5.22442 76.5321L7.95769 69.2399L8.92894 69.6047L6.61705 75.7727L10.3958 77.1921L12.4572 71.6926L13.4132 72.0517L11.3519 77.5512L15.2976 79.0333L17.6949 72.6375Z" fill="white"/>
<path d="M14.4616 55.3456L16.9984 51.4807C17.657 50.4772 18.4417 49.7249 19.3525 49.2238C20.2543 48.7167 21.2058 48.4883 22.2072 48.5386C23.1995 48.583 24.1563 48.9082 25.0774 49.5141C25.9986 50.12 26.6809 50.873 27.1245 51.7732C27.5591 52.6673 27.7273 53.6323 27.6293 54.6681C27.5223 55.6979 27.1395 56.7146 26.4808 57.7181L23.944 61.5829L14.4616 55.3456ZM25.5782 57.2021C26.1241 56.3703 26.4393 55.5356 26.5236 54.698C26.5989 53.8544 26.4603 53.0707 26.1078 52.347C25.7463 51.6173 25.1863 51.003 24.4277 50.504C23.6691 50.005 22.888 49.7372 22.0846 49.7006C21.2721 49.658 20.4985 49.8417 19.764 50.2516C19.0204 50.6557 18.3756 51.2735 17.8297 52.1053L15.9872 54.9124L23.7357 60.0092L25.5782 57.2021Z" fill="white"/>
<path d="M38.0233 42.7121L33.5785 42.1919C33.407 42.4305 33.2162 42.6661 33.0062 42.8989L30.9638 45.1629L33.6344 47.5773L32.8304 48.4684L24.4098 40.8556L27.2561 37.7005C28.2266 36.6247 29.2437 36.0137 30.3074 35.8676C31.3711 35.7215 32.352 36.0544 33.2502 36.8665C33.9079 37.461 34.3131 38.1335 34.4661 38.8839C34.6182 39.6191 34.5157 40.3864 34.1585 41.1858L38.9033 41.7367L38.0233 42.7121ZM32.2266 42.2379C32.9799 41.4029 33.3712 40.5979 33.4006 39.8229C33.43 39.0478 33.112 38.3594 32.4463 37.7576C31.7647 37.1413 31.0442 36.8908 30.285 37.0061C29.5177 37.1142 28.7575 37.5857 28.0043 38.4206L25.9836 40.6605L30.206 44.4778L32.2266 42.2379Z" fill="white"/>
<path d="M48.5717 31.5912L49.2327 32.3916L43.0491 37.5097L35.8192 28.7558L41.8154 23.7928L42.4764 24.5932L37.4046 28.791L39.9764 31.9049L44.4986 28.162L45.1492 28.9498L40.6271 32.6928L43.3125 35.9442L48.5717 31.5912Z" fill="white"/>
<path d="M58.1127 22.6485L52.7179 25.947L53.1358 29.247L52.0707 29.8983L50.5831 17.4983L51.5929 16.8809L61.9335 23.8679L60.8546 24.5276L58.1127 22.6485ZM57.2323 22.046L51.7317 18.2601L52.5844 24.8878L57.2323 22.046Z" fill="white"/>
<path d="M72.5065 6.58121L76.7303 17.1233L75.6622 17.5521L72.2831 9.1185L70.9881 17.873L70.4616 18.0844L63.5005 12.6974L66.8615 21.0859L65.7934 21.5148L61.5695 10.9727L62.4872 10.6042L70.1923 16.5841L71.5888 6.94969L72.5065 6.58121Z" fill="white"/>
<path d="M94.6586 12.6939C93.545 12.8452 92.4997 12.736 91.5227 12.3666C90.555 11.9849 89.7553 11.3948 89.1236 10.5964C88.5027 9.79645 88.1189 8.85516 87.9722 7.77251C87.8255 6.68985 87.9449 5.68021 88.3305 4.74359C88.7268 3.80552 89.3413 3.02886 90.1739 2.41362C91.0158 1.7862 91.9936 1.39687 93.1072 1.24564C94.2208 1.0944 95.2554 1.20497 96.211 1.57737C97.1773 1.9483 97.977 2.53837 98.6101 3.34755C99.2417 4.14602 99.6309 5.08658 99.7776 6.16924C99.9243 7.2519 99.8003 8.26762 99.4054 9.21641C99.0091 10.1545 98.3946 10.9311 97.562 11.5464C96.74 12.1602 95.7723 12.5427 94.6586 12.6939ZM94.5148 11.6327C95.4036 11.512 96.1798 11.2046 96.8435 10.7106C97.5057 10.2058 97.9923 9.57207 98.3034 8.80933C98.6129 8.03587 98.7082 7.20965 98.589 6.33066C98.4699 5.45167 98.159 4.68606 97.6562 4.03385C97.152 3.37091 96.5143 2.88985 95.7431 2.59066C94.9705 2.28076 94.1398 2.18615 93.251 2.30685C92.3623 2.42755 91.5814 2.74101 90.9085 3.24724C90.2448 3.74129 89.7528 4.37577 89.4325 5.15068C89.1215 5.91342 89.0256 6.73428 89.1447 7.61327C89.2638 8.49226 89.5755 9.26322 90.0797 9.92616C90.5932 10.5769 91.2362 11.0573 92.0089 11.3672C92.7907 11.6649 93.6261 11.7534 94.5148 11.6327Z" fill="white"/>
<path d="M107.572 1.0569L107.503 5.51862L113.37 5.60931L113.354 6.64767L107.487 6.55698L107.413 11.3756L106.213 11.3571L106.389 0L114.168 0.120253L114.152 1.15862L107.572 1.0569Z" fill="white"/>
<path d="M134.658 8.50183C135.347 8.83029 135.831 9.27718 136.109 9.84252C136.4 10.3998 136.459 11.0471 136.287 11.7843C136.065 12.7321 135.541 13.3813 134.715 13.7318C133.902 14.0742 132.812 14.0849 131.444 13.7637L126.363 12.5703L128.954 1.51209L133.72 2.63134C134.951 2.92042 135.845 3.39152 136.402 4.04463C136.97 4.70022 137.148 5.48087 136.936 6.38659C136.792 6.99743 136.518 7.48291 136.111 7.84306C135.718 8.19514 135.234 8.41473 134.658 8.50183ZM129.896 2.74999L128.956 6.76254L132.475 7.58901C133.369 7.79902 134.098 7.79235 134.661 7.56899C135.226 7.3351 135.585 6.89168 135.738 6.23872C135.891 5.58576 135.765 5.03394 135.36 4.58328C134.958 4.12208 134.309 3.78647 133.415 3.57646L129.896 2.74999ZM131.654 12.7963C132.643 13.0286 133.429 13.0355 134.013 12.8171C134.597 12.5987 134.973 12.1314 135.141 11.4152C135.464 10.0356 134.627 9.11104 132.628 8.6416L128.73 7.72618L127.756 11.8809L131.654 12.7963Z" fill="white"/>
<path d="M148.805 18.2174L148.422 19.1827L140.964 16.2205L145.148 5.66273L152.38 8.53512L151.998 9.50041L145.881 7.07085L144.392 10.8264L149.846 12.9927L149.47 13.9429L144.016 11.7766L142.462 15.6981L148.805 18.2174Z" fill="white"/>
<path d="M161.461 22.3959L155.984 19.2376L153.291 21.1868L152.209 20.5632L162.367 13.3119L163.392 13.9031L162.224 26.3372L161.129 25.7056L161.461 22.3959ZM161.568 21.3336L162.25 14.6861L156.848 18.6126L161.568 21.3336Z" fill="white"/>
<path d="M170.183 32.0797C169.037 31.1588 168.407 30.1121 168.294 28.9394C168.181 27.7668 168.629 26.552 169.636 25.2949L173.705 20.2204L174.64 20.9719L170.602 26.0085C169.777 27.0378 169.393 27.9917 169.451 28.8703C169.509 29.7489 169.976 30.5403 170.852 31.2444C171.737 31.9554 172.614 32.244 173.484 32.1102C174.353 31.9764 175.2 31.3949 176.025 30.3656L180.063 25.329L180.973 26.0603L176.905 31.1348C175.897 32.3919 174.809 33.0921 173.641 33.2356C172.482 33.3858 171.329 33.0005 170.183 32.0797Z" fill="white"/>
<path d="M187.391 33.4366L184.654 30.5332L185.409 29.8205L191.705 36.5006L190.95 37.2133L188.214 34.3099L180.716 41.3921L179.893 40.5187L187.391 33.4366Z" fill="white"/>
<path d="M192.115 48.7475L188.943 51.0575L188.247 50.0996L191.419 47.7896L194.753 39.7438L195.506 40.7805L192.643 47.681L200.083 47.079L200.788 48.05L192.115 48.7475Z" fill="white"/>
<path d="M201.184 76.3795L199.335 79.8818L202.834 81.7329L204.683 78.2306L201.184 76.3795Z" fill="white"/>
<path d="M203.919 71.1784L202.068 74.6807L205.567 76.533L207.417 73.0308L203.919 71.1784Z" fill="white"/>
<path d="M206.297 79.0124L204.447 82.5146L207.946 84.3665L209.796 80.8643L206.297 79.0124Z" fill="white"/>
<path d="M208.987 73.9174L207.138 77.4199L210.637 79.2719L212.487 75.7693L208.987 73.9174Z" fill="white"/>
<path d="M6.01692 136.62L4.16797 140.122L7.66684 141.973L9.5158 138.471L6.01692 136.62Z" fill="white"/>
<path d="M8.75254 131.417L6.90234 134.919L10.4012 136.771L12.2514 133.269L8.75254 131.417Z" fill="white"/>
<path d="M11.1298 139.252L9.28027 142.754L12.7794 144.606L14.6289 141.104L11.1298 139.252Z" fill="white"/>
<path d="M13.8204 134.157L11.9707 137.659L15.47 139.511L17.3197 136.009L13.8204 134.157Z" fill="white"/>
</svg>
