<svg width="22" height="27" viewBox="0 0 22 27" fill="none" xmlns="http://www.w3.org/2000/svg">
<path d="M1 7.83398H21.4914V22.147C21.4914 23.1687 21.0855 24.1486 20.363 24.8711C19.6405 25.5936 18.6606 25.9995 17.6388 25.9995H4.85258C3.83081 25.9995 2.85089 25.5936 2.12839 24.8711C1.4059 24.1486 1 23.1687 1 22.147V7.83398Z" stroke="white" stroke-miterlimit="10"/>
<path d="M6.68945 11.2457V5.5563C6.68945 4.34789 7.16949 3.18898 8.02396 2.33451C8.87843 1.48004 10.0373 1 11.2458 1C12.4542 1 13.6131 1.48004 14.4675 2.33451C15.322 3.18898 15.802 4.34789 15.802 5.5563V11.2457" stroke="white" stroke-miterlimit="10"/>
</svg>
