<svg width="37" height="35" viewBox="0 0 37 35" fill="none" xmlns="http://www.w3.org/2000/svg">
<path d="M2.65916 28C1.45298 28 0.47168 28.9813 0.47168 30.1875C0.47168 31.3937 1.45298 32.375 2.65916 32.375C3.86534 32.375 4.84665 31.3937 4.84665 30.1875C4.84665 28.9813 3.86534 28 2.65916 28Z" fill="#FFC46B"/>
<path d="M34.5967 21.4375C33.6317 21.4375 32.8467 22.2225 32.8467 23.1875C32.8467 24.1524 33.6317 24.9375 34.5967 24.9375C35.5616 24.9375 36.3467 24.1524 36.3467 23.1875C36.3467 22.2225 35.5617 21.4375 34.5967 21.4375Z" fill="#FFC46B"/>
<path d="M23.8778 19.4081V15.4707H20.1591C19.9174 15.4707 19.7216 15.2748 19.7216 15.0332V11.3145H15.7841V15.0332C15.7841 15.2748 15.5883 15.4707 15.3467 15.4707H11.6279V19.4081H15.3467C15.5883 19.4081 15.7841 19.604 15.7841 19.8456V23.5644H19.7216V19.8456C19.7216 19.604 19.9174 19.4081 20.1591 19.4081H23.8778Z" fill="#FFC46B"/>
<path d="M31.7772 6.1634C29.9816 4.36782 27.5941 3.37891 25.0547 3.37891C22.5152 3.37891 20.1277 4.36782 18.3321 6.1634L17.9544 6.54113L17.5766 6.1634C15.781 4.36782 13.3935 3.37891 10.8541 3.37891C8.31469 3.37891 5.92719 4.36782 4.13161 6.1634C0.424879 9.87022 0.424879 15.9017 4.13161 19.6085L17.6451 33.1219C17.816 33.293 18.0933 33.2926 18.2637 33.1219L31.7772 19.6085C33.5729 17.8129 34.5618 15.4254 34.5618 12.886C34.5618 10.3466 33.5729 7.95906 31.7772 6.1634ZM14.9093 24.002V20.2833H11.1905C10.9489 20.2833 10.753 20.0874 10.753 19.8458V15.0333C10.753 14.7916 10.9489 14.5958 11.1905 14.5958H14.9093V10.8771C14.9093 10.6354 15.1051 10.4396 15.3468 10.4396H20.1592C20.4009 10.4396 20.5967 10.6354 20.5967 10.8771V14.5958H24.3154C24.5571 14.5958 24.7529 14.7916 24.7529 15.0333V19.8458C24.7529 20.0874 24.5571 20.2833 24.3154 20.2833H20.5967V24.002C20.5967 24.2437 20.4009 24.4395 20.1592 24.4395H15.3468C15.1052 24.4395 14.9093 24.2436 14.9093 24.002Z" fill="#FFC46B"/>
<path d="M33.9404 1.31249C34.3029 1.31249 34.5967 1.01868 34.5967 0.656245C34.5967 0.293811 34.3029 0 33.9404 0C33.578 0 33.2842 0.293811 33.2842 0.656245C33.2842 1.01868 33.578 1.31249 33.9404 1.31249Z" fill="#FFC46B"/>
<path d="M5.06542 1.74999C5.42786 1.74999 5.72167 1.45618 5.72167 1.09375C5.72167 0.731311 5.42786 0.4375 5.06542 0.4375C4.70299 0.4375 4.40918 0.731311 4.40918 1.09375C4.40918 1.45618 4.70299 1.74999 5.06542 1.74999Z" fill="#FFC46B"/>
<path d="M34.3779 31.0625C34.7404 31.0625 35.0342 30.7687 35.0342 30.4062C35.0342 30.0438 34.7404 29.75 34.3779 29.75C34.0155 29.75 33.7217 30.0438 33.7217 30.4062C33.7217 30.7687 34.0155 31.0625 34.3779 31.0625Z" fill="#FFC46B"/>
<path d="M25.6279 35C25.9904 35 26.2842 34.7062 26.2842 34.3437C26.2842 33.9813 25.9904 33.6875 25.6279 33.6875C25.2655 33.6875 24.9717 33.9813 24.9717 34.3437C24.9717 34.7062 25.2655 35 25.6279 35Z" fill="#FFC46B"/>
<path d="M10.7528 34.1248C11.1152 34.1248 11.409 33.831 11.409 33.4687C11.409 33.1063 11.1152 32.8125 10.7528 32.8125C10.3905 32.8125 10.0967 33.1063 10.0967 33.4687C10.0967 33.831 10.3905 34.1248 10.7528 34.1248Z" fill="#FFC46B"/>
<path d="M0.656245 20.6133C1.01868 20.6133 1.31249 20.3195 1.31249 19.957C1.31249 19.5946 1.01868 19.3008 0.656245 19.3008C0.293811 19.3008 0 19.5946 0 19.957C0 20.3195 0.293811 20.6133 0.656245 20.6133Z" fill="#FFC46B"/>
</svg>
