<svg width="136" height="34" viewBox="0 0 136 34" fill="none" xmlns="http://www.w3.org/2000/svg">
<path d="M10.2728 9.11057C10.2728 7.37991 10.254 5.65866 10.2822 3.928C10.3104 2.03744 12.1822 0.203313 14.0915 0.203313C16.2455 0.193907 18.39 0.250342 20.5439 0.184501C22.3216 0.128067 23.5914 0.908745 24.5319 2.33842C24.9646 2.99683 25.021 3.75869 25.0587 4.51115C25.0963 5.47054 25.0492 6.43934 25.0775 7.39873C25.1151 8.86602 25.8111 9.54324 27.2784 9.54324C28.0685 9.54324 28.868 9.59027 29.6581 9.53383C32.461 9.32691 34.5585 11.3491 34.502 14.2649C34.455 16.4377 34.5679 18.6198 34.408 20.7925C34.2857 22.3821 32.508 24.2256 30.9279 24.3009C30.0249 24.3479 29.1219 24.3385 28.219 24.3855C27.7863 24.4044 27.6358 24.2539 27.6076 23.8118C27.4853 21.9212 27.4759 21.9306 29.3289 21.9212C29.7521 21.9212 30.1848 21.9306 30.5892 21.8366C31.3229 21.6673 31.8402 21.2064 31.8872 20.4163C32.0283 18.1025 32.0189 15.7793 31.8684 13.4654C31.812 12.6471 31.116 12.1298 30.2412 12.0828C28.6705 12.0076 27.0903 12.2709 25.5383 11.7724C23.8923 11.2457 22.7825 9.92888 22.6884 8.20762C22.6226 7.05071 22.5473 5.8938 22.5473 4.73689C22.5473 3.42008 21.8983 2.67703 20.5627 2.72406C18.5593 2.7993 16.5464 2.73346 14.543 2.74287C13.3297 2.75228 12.85 3.22256 12.8406 4.4171C12.8312 7.58684 12.8312 10.7566 12.8406 13.9263C12.8406 15.1303 13.4237 15.7228 14.6371 15.7322C16.5558 15.751 18.484 15.8075 20.4028 15.7228C23.2622 15.5911 25.1997 17.6228 25.0963 20.4163C24.9928 23.3603 25.0681 26.3043 25.0681 29.2483C25.0681 31.2423 24.1839 32.672 22.3404 33.4903C21.7854 33.7349 21.1741 33.7913 20.6097 33.7819C18.2959 33.7537 15.9821 33.9418 13.6683 33.6596C12.1916 33.4809 10.2916 31.7503 10.301 29.9914C10.301 28.8345 10.301 27.6682 10.2916 26.5112C10.2822 25.1474 9.54855 24.4138 8.1659 24.3761C6.98077 24.3479 5.79564 24.3667 4.61052 24.3103C2.87045 24.2256 1.83582 23.1534 1.1586 21.6579C0.857617 20.9807 0.782371 20.2658 0.791777 19.5134C0.8294 17.7263 0.810588 15.9486 0.801183 14.1615C0.791777 11.81 2.00512 10.1828 4.14023 9.62789C5.20308 9.34572 6.38821 9.56205 7.5169 9.55265C7.69561 9.55265 7.75204 9.67492 7.75204 9.83482C7.75204 10.4838 7.76145 11.1328 7.75204 11.7912C7.75204 12.1486 7.46987 12.0734 7.25354 12.0734C6.54811 12.0828 5.84267 12.0734 5.12784 12.0828C4.0932 12.0922 3.35015 12.8353 3.34074 13.8793C3.33133 15.8921 3.34074 17.8956 3.34074 19.9084C3.34074 21.1688 4.04617 21.893 5.32536 21.9118C6.3694 21.9306 7.42284 21.9494 8.46688 21.9118C11.0535 21.8178 12.8312 24.1504 12.8406 26.3419C12.8406 27.386 12.897 28.4394 12.8312 29.4835C12.7465 30.7156 13.6306 31.2518 14.5148 31.2706C16.6311 31.3176 18.7568 31.3176 20.8825 31.2706C21.8795 31.2518 22.5379 30.5557 22.5473 29.5305C22.5755 26.3043 22.5755 23.0781 22.5473 19.852C22.5379 18.7703 21.8419 18.2248 20.5439 18.2154C18.6251 18.1965 16.6875 18.1307 14.7782 18.2342C12.4549 18.3659 10.0659 16.2778 10.2916 13.7664C10.3857 12.2427 10.2728 10.6719 10.2728 9.11057Z" fill="white"/>
<path d="M44.4814 24.6104V9.37305H49.7016C51.0467 9.37305 52.1566 9.57057 53.0219 9.97502C53.8872 10.3701 54.5268 10.925 54.9501 11.6304C55.3733 12.3359 55.5803 13.1448 55.5803 14.0571C55.5803 14.9601 55.3733 15.7596 54.9501 16.4744C54.5268 17.1892 53.8872 17.7442 53.0219 18.1392C52.1566 18.5343 51.0561 18.7412 49.7016 18.7412H46.5319V24.6198H44.4814V24.6104ZM46.5319 16.9541H49.5982C51.0467 16.9541 52.0719 16.6907 52.6551 16.1734C53.2382 15.6467 53.5392 14.9507 53.5392 14.0665C53.5392 13.1824 53.2476 12.477 52.6551 11.9596C52.0719 11.4329 51.0467 11.179 49.5982 11.179H46.5319V16.9541Z" fill="white"/>
<path d="M55.2598 24.6104L61.0913 9.37305H63.1418L68.9734 24.6104H66.7536L65.2957 20.8199H58.8528L57.3949 24.6104H55.2598ZM59.5206 19.0422H64.6091L62.0601 11.9879L59.5206 19.0422Z" fill="white"/>
<path d="M71.5791 24.6104V9.37305H76.7993C78.1443 9.37305 79.2542 9.57057 80.1195 9.97502C80.9849 10.3701 81.6245 10.925 82.0477 11.6304C82.471 12.3359 82.6779 13.1448 82.6779 14.0571C82.6779 14.9601 82.471 15.7596 82.0477 16.4744C81.6245 17.1892 80.9849 17.7442 80.1195 18.1392C79.2542 18.5343 78.1537 18.7412 76.7993 18.7412H73.6296V24.6198H71.5791V24.6104ZM73.6296 16.9541H76.6958C78.1443 16.9541 79.1696 16.6907 79.7527 16.1734C80.3359 15.6467 80.6369 14.9507 80.6369 14.0665C80.6369 13.1824 80.3453 12.477 79.7527 11.9596C79.1696 11.4329 78.1443 11.179 76.6958 11.179H73.6296V16.9541Z" fill="white"/>
<path d="M89.1679 24.6104V11.1601H83.8818V9.37305H96.5044V11.1601H91.2183V24.6104H89.1679Z" fill="white"/>
<path d="M95.6299 24.6104L101.461 9.37305H103.512L109.343 24.6104H107.124L105.666 20.8199H99.2229L97.765 24.6104H95.6299ZM99.8907 19.0422H104.979L102.43 11.9879L99.8907 19.0422Z" fill="white"/>
<path d="M111.949 24.6104V9.37305H117.179C118.524 9.37305 119.634 9.57057 120.499 9.97502C121.364 10.3701 122.004 10.925 122.427 11.6304C122.851 12.3359 123.057 13.1448 123.057 14.0571C123.057 14.9601 122.851 15.7596 122.427 16.4744C122.004 17.1892 121.364 17.7442 120.499 18.1392C119.634 18.5343 118.533 18.7412 117.179 18.7412H114V24.6198H111.949V24.6104ZM114 16.9541H117.066C118.514 16.9541 119.54 16.6907 120.123 16.1734C120.706 15.6467 121.007 14.9507 121.007 14.0665C121.007 13.1824 120.715 12.477 120.123 11.9596C119.54 11.4329 118.514 11.179 117.066 11.179H114V16.9541Z" fill="white"/>
<path d="M126.208 24.6104V9.37305H135.999V11.1601H128.249V15.8818H135.341V17.6689H128.249V22.8233H135.999V24.6104H126.208Z" fill="white"/>
</svg>
