<svg width="382" height="81" viewBox="0 0 382 81" fill="none" xmlns="http://www.w3.org/2000/svg">
<path d="M358.285 41.6198C359.685 41.0998 360.505 40.7198 360.745 40.4798C360.505 40.0798 359.785 39.9398 358.585 40.0598C358.065 40.0998 357.705 40.2197 357.505 40.4197C357.345 40.6197 357.325 40.8997 357.445 41.2597C357.565 41.5798 357.745 41.7997 357.985 41.9197C358.025 41.7997 358.125 41.6998 358.285 41.6198ZM379.405 44.3798C377.885 44.3798 375.925 44.5398 373.525 44.8598C371.125 45.1798 369.045 45.4797 367.285 45.7597C365.565 45.9998 363.725 45.9998 361.765 45.7597C359.845 45.5197 358.265 44.8998 357.025 43.8998C355.785 42.9798 355.205 41.8998 355.285 40.6598C355.285 39.8198 355.725 39.1598 356.605 38.6798C357.445 38.1998 358.425 37.9798 359.545 38.0198C360.665 38.0598 361.565 38.3798 362.245 38.9798C362.805 39.4598 363.045 39.8797 362.965 40.2397C362.885 40.6397 362.665 41.0198 362.305 41.3798C361.945 41.7398 361.525 42.0398 361.045 42.2798C360.565 42.5198 360.045 42.7198 359.485 42.8798C359.765 43.6798 360.485 44.2398 361.645 44.5598C362.805 44.8398 364.205 44.9198 365.845 44.7998C367.525 44.6398 369.165 44.4398 370.765 44.1998C372.405 43.9198 374.065 43.6198 375.745 43.2998C377.465 42.9798 378.665 42.7997 379.345 42.7597C380.345 42.3197 380.965 42.4198 381.205 43.0598C381.405 43.5798 381.185 43.9797 380.545 44.2597C380.225 44.3797 379.845 44.4198 379.405 44.3798Z" fill="#FFC46B"/>
<path d="M325.286 39.3998C325.246 39.3198 325.206 39.2398 325.166 39.1598C325.006 39.4798 324.886 39.6998 324.806 39.8198C324.606 40.0998 324.326 40.4398 323.966 40.8398C323.606 41.1998 323.386 41.4398 323.306 41.5598C322.266 42.7998 321.466 43.8798 320.906 44.7998C320.226 45.8398 319.846 46.4198 319.766 46.5398C319.726 46.6198 319.666 46.7598 319.586 46.9598C319.546 47.1198 319.506 47.2398 319.466 47.3198C319.466 47.3198 319.426 47.3998 319.346 47.5598C319.306 47.6798 319.246 47.7798 319.166 47.8598C319.126 47.8998 319.066 47.9198 318.986 47.9198C318.786 47.9198 318.586 47.8798 318.386 47.7998C318.226 47.6798 318.026 47.5598 317.786 47.4398C317.586 47.2798 317.426 47.1798 317.306 47.1398L317.246 47.0798C317.086 46.6798 317.006 46.3398 317.006 46.0598C317.006 45.6198 317.066 45.1598 317.186 44.6798C317.306 44.1598 317.466 43.6198 317.666 43.0598C317.866 42.4598 318.006 41.9998 318.086 41.6798C318.206 41.4398 318.406 41.3398 318.686 41.3798C318.966 41.3798 319.206 41.4798 319.406 41.6798C319.646 41.8798 319.726 42.0998 319.646 42.3398C319.566 42.4998 319.466 42.7398 319.346 43.0598C319.226 43.3398 319.126 43.6198 319.046 43.8998C318.966 44.1798 318.886 44.4398 318.806 44.6798C318.926 44.5598 319.046 44.3998 319.166 44.1998C319.326 43.9598 319.426 43.8198 319.466 43.7798C320.106 42.8598 320.926 41.7598 321.926 40.4798C322.806 39.4398 323.386 38.6398 323.666 38.0798C324.266 37.3598 324.626 36.9798 324.746 36.9398C325.706 36.7398 326.406 37.0798 326.846 37.9598C326.846 37.9598 326.926 38.2198 327.086 38.7398C327.446 39.8198 327.886 40.7398 328.406 41.4998C328.926 42.2598 329.546 42.8598 330.266 43.2998C330.986 43.7398 331.746 44.0798 332.546 44.3198C333.386 44.5598 334.326 44.6998 335.366 44.7398C336.446 44.7398 337.506 44.7198 338.546 44.6798C339.626 44.5998 340.846 44.4798 342.206 44.3198C343.606 44.1598 344.946 43.9998 346.226 43.8398C347.546 43.6798 349.046 43.5398 350.726 43.4198C352.406 43.2598 354.006 43.1798 355.526 43.1798C357.486 42.6198 358.586 42.7598 358.826 43.5998C358.946 44.1198 358.706 44.5398 358.106 44.8598C357.906 44.9398 357.666 44.9798 357.386 44.9798C353.946 44.6998 350.786 44.6798 347.906 44.9198C345.026 45.1198 342.366 45.2798 339.926 45.3998C337.526 45.4798 335.386 45.4598 333.506 45.3398C331.666 45.2198 330.026 44.6798 328.586 43.7198C327.186 42.7598 326.086 41.3198 325.286 39.3998Z" fill="#FFC46B"/>
<path d="M300.129 45.5798C301.289 45.8598 302.329 45.9998 303.249 45.9998C304.209 45.9998 305.329 45.8798 306.609 45.6398C307.929 45.3598 309.069 45.0798 310.029 44.7998C311.029 44.5198 312.149 44.2198 313.389 43.8998C314.629 43.5398 315.669 43.2998 316.509 43.1798C318.149 42.8998 319.009 43.1398 319.089 43.8998C319.169 44.3798 318.929 44.7198 318.369 44.9198C318.089 44.9998 317.809 44.9598 317.529 44.7998C316.209 44.9198 314.229 45.1998 311.589 45.6398C308.989 46.0398 307.349 46.2998 306.669 46.4198C306.389 46.4598 305.789 46.5598 304.869 46.7198C303.989 46.8798 303.209 47.0198 302.529 47.1398C301.889 47.2198 301.189 47.2398 300.429 47.1998C299.669 47.1598 299.089 46.9998 298.689 46.7198C297.969 46.1998 297.969 45.3398 298.689 44.1398C298.409 44.2998 298.169 44.4398 297.969 44.5598C297.809 44.6398 297.669 44.7198 297.549 44.7998C297.469 44.8398 297.389 44.8998 297.309 44.9798C297.269 45.0198 297.229 45.0398 297.189 45.0398C297.189 45.0398 297.169 45.0598 297.129 45.0998C297.089 45.0998 297.069 45.0998 297.069 45.0998C297.069 45.0998 297.009 45.1198 296.889 45.1598C296.809 45.1998 296.729 45.2398 296.649 45.2798C296.569 45.3198 296.429 45.3998 296.229 45.5198C296.029 45.5998 295.809 45.6998 295.569 45.8198C294.289 46.2198 293.089 46.4998 291.969 46.6598C291.929 46.6998 291.789 46.7398 291.549 46.7798C291.309 46.8198 291.129 46.8398 291.009 46.8398C290.489 46.7598 290.029 46.5998 289.629 46.3598C289.629 46.3598 289.569 46.1798 289.449 45.8198C289.449 45.7398 289.449 45.6398 289.449 45.5198C289.409 45.3998 289.389 45.3198 289.389 45.2798C289.389 45.1998 289.389 45.0998 289.389 44.9798C289.469 44.6598 289.629 44.3598 289.869 44.0798C290.109 43.7998 290.289 43.5998 290.409 43.4798C290.569 43.3598 290.889 43.1798 291.369 42.9398C291.849 42.6598 292.109 42.4998 292.149 42.4598C292.269 42.3798 292.469 42.2398 292.749 42.0398C293.029 41.7998 293.289 41.5998 293.529 41.4398C293.769 41.2798 293.989 41.1598 294.189 41.0798C294.709 40.8798 295.469 40.7398 296.469 40.6598C297.509 40.5798 298.209 40.4998 298.569 40.4198C298.969 40.4198 299.169 40.6998 299.169 41.2598C299.169 41.8198 298.969 42.0998 298.569 42.0998C298.409 42.0998 298.029 42.1398 297.429 42.2198C296.829 42.2598 296.329 42.3198 295.929 42.3998C295.529 42.4798 295.149 42.6198 294.789 42.8198C294.669 42.8998 294.509 43.0398 294.309 43.2398C294.149 43.3998 294.029 43.4998 293.949 43.5398C293.869 43.5798 293.789 43.6398 293.709 43.7198C293.629 43.7598 293.529 43.8198 293.409 43.8998C293.329 43.9398 293.269 43.9798 293.229 44.0198C293.149 44.0998 292.929 44.2198 292.569 44.3798C292.249 44.5398 292.009 44.6798 291.849 44.7998C292.809 44.7198 293.869 44.5198 295.029 44.1998C295.269 44.0798 295.509 43.9798 295.749 43.8998C296.029 43.7798 296.189 43.7198 296.229 43.7198C296.269 43.6798 296.349 43.6398 296.469 43.5998C296.589 43.5198 296.669 43.4598 296.709 43.4198C296.749 43.3798 296.869 43.2998 297.069 43.1798C297.309 43.0598 297.549 42.9198 297.789 42.7598C297.869 42.7198 298.069 42.6198 298.389 42.4598C298.709 42.2598 298.949 42.0998 299.109 41.9798C299.389 41.8198 299.769 41.5398 300.249 41.1398C300.729 40.7398 301.109 40.4598 301.389 40.2998C301.749 40.0598 302.089 39.9798 302.409 40.0598C302.729 40.0998 302.989 40.2998 303.189 40.6598C303.389 40.9798 303.409 41.3198 303.249 41.6798C303.169 41.8798 303.069 42.0598 302.949 42.2198C302.869 42.3398 302.809 42.4398 302.769 42.5198C302.729 42.5598 302.589 42.6598 302.349 42.8198C302.149 42.9798 302.009 43.0998 301.929 43.1798C301.489 43.4998 300.889 44.2998 300.129 45.5798Z" fill="#FFC46B"/>
<path d="M272.788 40.6599C271.628 41.3799 270.428 42.1799 269.188 43.0599C268.628 43.4599 268.288 43.6599 268.168 43.6599C268.048 43.6199 267.908 43.5799 267.748 43.5399C267.628 43.4999 267.508 43.4599 267.388 43.4199C267.268 43.3399 267.128 43.2799 266.968 43.2399C266.848 43.1599 266.728 43.0999 266.608 43.0599C266.568 43.0599 266.548 43.0399 266.548 42.9999C266.548 42.9599 266.508 42.8799 266.428 42.7599C266.388 42.6399 266.348 42.5199 266.308 42.3999C266.308 42.2799 266.308 42.1799 266.308 42.0999C266.268 41.8999 266.268 41.7399 266.308 41.6199C266.388 41.4999 266.448 41.3999 266.488 41.3199C266.528 41.2399 266.608 41.1399 266.728 41.0199C266.888 40.8999 266.988 40.8199 267.028 40.7799C267.108 40.6999 267.248 40.5399 267.448 40.2999C267.688 40.0199 267.848 39.8399 267.928 39.7599C268.048 39.6399 268.188 39.4999 268.348 39.3399C268.548 39.1399 268.708 38.9599 268.828 38.7999C268.988 38.6399 269.148 38.4799 269.308 38.3199C271.108 36.7999 273.508 34.1199 276.508 30.2799C277.788 28.5999 278.528 27.6399 278.728 27.3999C278.768 27.3599 278.908 27.1799 279.148 26.8599C279.268 26.6599 279.388 26.4999 279.508 26.3799C279.628 26.2199 279.828 25.9599 280.108 25.5999C280.388 25.1999 280.688 24.7999 281.008 24.3999C281.208 24.1199 281.748 23.3799 282.628 22.1799C283.508 20.9799 284.108 20.1799 284.428 19.7799C284.748 19.3399 285.268 18.6199 285.988 17.6199C286.708 16.5799 287.268 15.7599 287.668 15.1599C288.108 14.5199 288.608 13.7799 289.168 12.9399C289.728 12.0599 290.248 11.2199 290.728 10.4199C290.888 10.1399 291.128 9.71992 291.448 9.15992C291.608 8.83992 291.748 8.53992 291.868 8.25992C291.988 7.97992 292.068 7.73991 292.108 7.53992C292.148 7.33992 292.168 7.15991 292.168 6.99991C292.208 6.83991 292.228 6.71991 292.228 6.63992C292.228 6.51991 292.208 6.43992 292.168 6.39992C292.168 6.31992 292.168 6.25992 292.168 6.21992C292.208 6.05992 292.368 5.37992 292.648 4.17992C292.688 4.13992 292.708 4.07992 292.708 3.99991C292.748 3.87992 292.768 3.77992 292.768 3.69991C292.808 3.57992 292.828 3.45992 292.828 3.33992C292.868 3.21992 292.908 3.11991 292.948 3.03992C292.988 2.91991 293.028 2.79991 293.068 2.67992C293.108 2.55992 293.148 2.43991 293.188 2.31991C293.668 1.07992 294.408 0.659916 295.408 1.05992C295.488 1.09992 295.568 1.15991 295.648 1.23991C295.728 1.27992 295.788 1.33992 295.828 1.41992C295.868 1.45992 295.908 1.51992 295.948 1.59992C295.988 1.67992 296.028 1.77991 296.068 1.89992C296.108 1.97991 296.148 2.05992 296.188 2.13992C296.228 2.21992 296.268 2.29992 296.308 2.37992C296.348 2.45992 296.388 2.51992 296.428 2.55992V2.67992C296.388 2.75992 296.348 2.85992 296.308 2.97992C296.268 3.09992 296.228 3.23992 296.188 3.39992C296.188 3.51992 296.168 3.63992 296.128 3.75992C296.128 3.87992 296.108 4.01992 296.068 4.17992C296.068 4.29992 296.048 4.41992 296.008 4.53992C295.848 5.01992 295.648 5.53992 295.408 6.09992C295.168 6.61992 294.868 7.19992 294.508 7.83991C294.188 8.47992 293.948 8.95992 293.788 9.27991C293.748 9.39992 293.688 9.53992 293.608 9.69992C293.528 9.81992 293.428 9.95992 293.308 10.1199C293.228 10.2799 293.168 10.3999 293.128 10.4799C292.848 11.3999 292.508 12.4199 292.108 13.5399C291.748 14.6599 291.408 15.6599 291.088 16.5399C290.808 17.4199 290.488 18.4199 290.128 19.5399C289.768 20.6599 289.448 21.6599 289.168 22.5399C288.648 24.0599 288.128 25.6999 287.608 27.4599C287.088 29.1799 286.528 31.1199 285.928 33.2799C285.328 35.3999 284.848 37.0399 284.488 38.1999C284.208 39.2399 283.868 40.5199 283.468 42.0399C283.068 43.5199 282.708 44.8199 282.388 45.9399C282.108 47.0599 281.768 48.3199 281.368 49.7199C281.008 51.1599 280.688 52.4799 280.408 53.6799L280.348 53.7399C280.708 53.7799 281.048 53.8199 281.368 53.8599C281.848 53.8999 287.208 54.3799 297.448 55.2999C302.928 55.8199 305.688 56.0799 305.728 56.0799C314.008 56.8799 319.548 57.3599 322.348 57.5199C323.548 57.5999 324.768 57.6599 326.008 57.6999C327.288 57.7799 328.528 57.8399 329.728 57.8799C330.968 57.9199 332.188 57.9599 333.388 57.9999C334.628 58.0399 335.868 58.0599 337.108 58.0599C338.388 58.0999 339.608 58.1199 340.768 58.1199C341.968 58.1599 343.208 58.1799 344.488 58.1799C348.048 58.2999 353.728 58.1599 361.528 57.7599C362.008 57.7599 362.708 57.7199 363.628 57.6399C364.588 57.5999 365.308 57.5599 365.788 57.5199C365.908 57.5199 366.028 57.5199 366.148 57.5199C366.268 57.5199 366.388 57.5199 366.508 57.5199C366.508 57.3999 366.508 57.2799 366.508 57.1599C366.508 57.0399 366.528 56.9199 366.568 56.7999C366.608 56.7199 366.648 56.6399 366.688 56.5599C366.728 56.4799 366.788 56.3999 366.868 56.3199C366.988 56.2799 367.108 56.2399 367.228 56.1999C368.428 56.0399 369.708 55.9399 371.068 55.8999C371.908 55.7799 372.868 55.7599 373.948 55.8399C375.068 55.9599 376.028 56.2399 376.828 56.6799C376.828 56.6799 376.828 56.6999 376.828 56.7399C376.828 56.8999 376.828 57.0799 376.828 57.2799C376.868 57.5199 376.888 57.7199 376.888 57.8799C376.928 58.0399 376.928 58.2199 376.888 58.4199C376.888 58.6599 376.848 58.8599 376.768 59.0199C376.688 59.1799 376.568 59.2999 376.408 59.3799C376.288 59.4599 376.168 59.4799 376.048 59.4399C375.928 59.4399 375.768 59.4199 375.568 59.3799C375.368 59.3399 375.248 59.3199 375.208 59.3199C375.008 59.2799 374.768 59.2399 374.488 59.1999C374.248 59.1999 373.988 59.1999 373.708 59.1999C373.468 59.2399 373.248 59.2599 373.048 59.2599C372.848 59.2599 372.588 59.2599 372.268 59.2599C371.988 59.2599 371.768 59.2799 371.608 59.3199C370.408 59.3199 368.688 59.2999 366.448 59.2599C364.208 59.2599 362.588 59.2599 361.588 59.2599C360.828 59.2599 359.708 59.2799 358.228 59.3199C356.788 59.3599 355.608 59.3799 354.688 59.3799C353.768 59.3799 352.668 59.3799 351.388 59.3799C350.148 59.3799 348.948 59.3599 347.788 59.3199C346.668 59.2799 345.568 59.2199 344.488 59.1399C344.208 59.1399 343.908 59.1399 343.588 59.1399C343.308 59.1399 343.028 59.1399 342.748 59.1399C342.468 59.1399 342.168 59.1199 341.848 59.0799C341.568 59.0799 341.288 59.0799 341.008 59.0799C340.728 59.0799 340.428 59.0799 340.108 59.0799C339.788 59.0799 339.488 59.0599 339.208 59.0199C338.928 59.0199 338.628 59.0199 338.308 59.0199C338.028 59.0199 337.748 59.0199 337.468 59.0199C335.308 58.9399 333.008 58.8199 330.568 58.6599C328.128 58.5399 326.028 58.4199 324.268 58.2999C322.548 58.1799 320.188 57.9799 317.188 57.6999C314.228 57.4599 312.148 57.2799 310.948 57.1599C309.748 57.0799 307.388 56.8599 303.868 56.4999C300.348 56.1799 298.188 55.9799 297.388 55.8999C295.628 55.7799 292.948 55.5799 289.348 55.2999C285.788 55.0599 283.088 54.8599 281.248 54.6999C281.088 54.6999 280.908 54.6799 280.708 54.6399C280.508 54.6399 280.328 54.6399 280.168 54.6399C280.128 54.7999 280.068 55.0399 279.988 55.3599C279.908 55.6799 279.848 55.9399 279.808 56.1399C279.768 56.3399 279.708 56.5599 279.628 56.7999C279.548 57.0799 279.468 57.3399 279.388 57.5799C279.348 57.8199 279.288 58.0599 279.208 58.2999C279.088 58.8599 278.948 59.3799 278.788 59.8599C278.628 60.3799 278.448 60.9399 278.248 61.5399C278.048 62.1399 277.888 62.5799 277.768 62.8599C277.648 63.1799 277.448 63.7199 277.168 64.4799C276.888 65.2799 276.708 65.7999 276.628 66.0399C276.268 66.7599 275.868 67.8199 275.428 69.2199C274.988 70.6199 274.668 71.5399 274.468 71.9799C274.268 72.4999 274.028 73.0199 273.748 73.5399C273.508 74.0999 273.228 74.6399 272.908 75.1599C272.628 75.7199 272.328 76.1999 272.008 76.5999C271.488 77.3599 271.048 77.8999 270.688 78.2199C270.488 78.3799 270.288 78.5199 270.088 78.6399C269.888 78.7999 269.648 78.9399 269.368 79.0599C269.088 79.2199 268.888 79.3599 268.768 79.4799C268.608 79.5199 268.448 79.5599 268.288 79.5999C268.128 79.6399 267.968 79.6799 267.808 79.7199C267.688 79.7599 267.548 79.7999 267.388 79.8399C267.228 79.9199 267.068 79.9599 266.908 79.9599C266.748 79.9999 266.588 80.0399 266.428 80.0799C264.508 80.3199 261.948 79.8599 258.748 78.6999C257.348 78.1799 256.428 77.8199 255.988 77.6199C255.708 77.4599 255.408 77.2999 255.088 77.1399C254.808 76.9799 254.488 76.7999 254.128 76.5999C253.768 76.3999 253.468 76.2399 253.228 76.1199C252.748 75.8399 252.268 75.5199 251.788 75.1599C251.348 74.8399 250.888 74.4799 250.408 74.0799C249.968 73.6799 249.568 73.2999 249.208 72.9399C248.848 72.6199 248.428 72.1999 247.948 71.6799C247.508 71.1999 247.148 70.7999 246.868 70.4799C246.588 70.1999 246.188 69.7599 245.668 69.1599C245.148 68.5999 244.768 68.1999 244.528 67.9599C243.328 66.6799 242.688 65.9999 242.608 65.9199C242.608 65.9199 242.008 65.2399 240.808 63.8799C239.008 61.3199 238.028 59.9199 237.868 59.6799C237.268 58.6399 236.868 57.6599 236.668 56.7399C236.508 56.0599 236.448 55.5799 236.488 55.2999C236.528 55.0999 236.588 54.8999 236.668 54.6999C236.748 54.5399 236.848 54.3399 236.968 54.0999C237.088 53.8999 237.188 53.7399 237.268 53.6199C237.388 53.5399 237.568 53.4199 237.808 53.2599C238.048 53.0999 238.248 52.9599 238.408 52.8399C238.608 52.7599 238.808 52.6799 239.008 52.5999C239.488 52.3599 240.128 52.1599 240.928 51.9999C241.768 51.8399 242.588 51.7199 243.388 51.6399C245.828 51.3599 249.808 51.2999 255.328 51.4599C259.168 51.7399 267.028 52.4599 278.908 53.6199L278.968 53.3199C279.248 52.2399 279.528 51.1999 279.808 50.1999C280.088 49.1999 280.368 48.1799 280.648 47.1399C280.928 46.0599 281.208 45.0199 281.488 44.0199C281.768 42.9799 282.048 41.9399 282.328 40.8999C282.608 39.8599 282.888 38.8199 283.168 37.7799C283.608 36.3399 284.088 34.6799 284.608 32.7999C285.168 30.8799 285.708 28.9799 286.228 27.0999C286.788 25.2199 287.288 23.5399 287.728 22.0599C287.888 21.4999 288.068 20.8399 288.268 20.0799C288.508 19.3199 288.748 18.5599 288.988 17.7999C289.228 17.0399 289.428 16.3599 289.588 15.7599C289.428 15.9999 289.268 16.2199 289.108 16.4199C288.508 17.2999 287.808 18.2799 287.008 19.3599C286.248 20.3999 285.448 21.4999 284.608 22.6599C283.768 23.7799 283.068 24.7199 282.508 25.4799C280.108 28.6799 278.628 30.6799 278.068 31.4799C277.948 31.6399 277.668 32.0399 277.228 32.6799C276.788 33.3199 276.428 33.7999 276.148 34.1199C275.948 34.3999 275.748 34.6799 275.548 34.9599C275.348 35.1999 275.128 35.4599 274.888 35.7399C274.688 35.9799 274.468 36.2199 274.228 36.4599C274.028 36.6999 273.808 36.9599 273.568 37.2399C273.368 37.5199 273.148 37.7799 272.908 38.0199C272.708 38.2199 272.488 38.4599 272.248 38.7399C272.608 38.9799 272.848 39.2999 272.968 39.6999C273.128 40.0599 273.068 40.3799 272.788 40.6599ZM278.668 54.5199C276.188 54.2799 274.608 54.1399 273.928 54.0999C266.448 53.5399 260.248 53.1999 255.328 53.0799C255.168 53.0799 254.708 53.0799 253.948 53.0799C253.188 53.0799 252.708 53.0799 252.508 53.0799C252.308 53.1199 251.868 53.1399 251.188 53.1399C250.508 53.1399 250.028 53.1399 249.748 53.1399C249.508 53.1799 249.068 53.2199 248.428 53.2599C247.828 53.2999 247.348 53.3399 246.988 53.3799C246.668 53.4199 246.228 53.4599 245.668 53.4999C245.148 53.5799 244.688 53.6599 244.288 53.7399C243.888 53.8199 243.448 53.8999 242.968 53.9799C242.488 54.0999 242.048 54.2199 241.648 54.3399C241.568 54.3399 241.488 54.3399 241.408 54.3399C241.328 54.3799 241.248 54.3999 241.168 54.3999C241.128 54.4399 241.068 54.4799 240.988 54.5199C240.908 54.5599 240.828 54.5799 240.748 54.5799C240.668 54.6199 240.588 54.6399 240.508 54.6399C240.468 54.6799 240.408 54.6999 240.328 54.6999C240.248 54.7399 240.168 54.7799 240.088 54.8199C240.048 54.8599 239.988 54.8799 239.908 54.8799C239.828 54.9199 239.728 54.9399 239.608 54.9399C239.528 54.9799 239.468 54.9999 239.428 54.9999C239.388 55.0399 239.328 55.0799 239.248 55.1199L239.068 55.2399C238.868 55.6399 238.968 56.3399 239.368 57.3399C239.528 57.7799 239.748 58.2399 240.028 58.7199C240.308 59.2399 240.528 59.6399 240.688 59.9199C240.888 60.1999 241.188 60.6399 241.588 61.2399C242.028 61.8799 242.308 62.2799 242.428 62.4399C243.268 63.4399 244.488 64.8199 246.088 66.5799C246.248 66.7799 246.508 67.0799 246.868 67.4799C247.268 67.8799 247.568 68.1999 247.768 68.4399C247.968 68.6799 248.228 68.9799 248.548 69.3399C248.908 69.6999 249.208 69.9999 249.448 70.2399C249.728 70.5199 250.028 70.8199 250.348 71.1399C250.668 71.4599 250.968 71.7399 251.248 71.9799C251.528 72.2599 251.828 72.5399 252.148 72.8199C252.508 73.0999 252.848 73.3599 253.168 73.5999C253.528 73.8399 253.888 74.0799 254.248 74.3199C254.408 74.3999 254.648 74.5399 254.968 74.7399C255.328 74.9399 255.648 75.0999 255.928 75.2199C256.248 75.3799 256.528 75.5199 256.768 75.6399C257.048 75.7599 257.948 76.0799 259.468 76.5999C262.188 77.5999 264.328 77.9999 265.888 77.7999C265.928 77.7999 266.488 77.6799 267.568 77.4399C267.648 77.3599 267.788 77.2599 267.988 77.1399C268.188 77.0599 268.368 76.9799 268.528 76.8999C268.688 76.8199 268.828 76.7399 268.948 76.6599C269.428 76.2599 269.848 75.7999 270.208 75.2799C270.608 74.7999 271.008 74.2199 271.408 73.5399C271.968 72.5799 272.608 71.1399 273.328 69.2199C274.088 67.3399 274.628 66.0599 274.948 65.3799C276.308 61.8599 277.228 59.3599 277.708 57.8799C277.908 57.1599 278.228 56.0399 278.668 54.5199ZM242.428 62.4399C242.428 62.4799 242.428 62.4999 242.428 62.4999V62.4399Z" fill="#FFC46B"/>
<path d="M198.291 40.2401C197.451 40.4401 195.811 41.0801 193.371 42.1601C190.931 43.2401 189.511 43.9801 189.111 44.3801C189.111 44.6601 189.871 44.4601 191.391 43.7801C192.911 43.1001 194.451 42.3401 196.011 41.5001L198.291 40.2401ZM207.351 39.7001C206.951 39.7001 206.291 39.7001 205.371 39.7001C204.491 39.6601 203.711 39.6401 203.031 39.6401C202.391 39.6401 201.771 39.7001 201.171 39.8201C196.091 43.0601 192.391 45.1401 190.071 46.0601C189.951 46.1001 189.811 46.1601 189.651 46.2401C189.531 46.2801 189.411 46.3201 189.291 46.3601C189.211 46.4001 189.091 46.4601 188.931 46.5401C188.811 46.5801 188.691 46.6201 188.571 46.6601C188.531 46.7001 188.411 46.7601 188.211 46.8401C188.051 46.9201 187.911 47.0001 187.791 47.0801C187.631 47.1201 187.431 47.1801 187.191 47.2601C186.951 47.3401 186.771 47.3801 186.651 47.3801C186.531 47.3801 186.411 47.3601 186.291 47.3201C185.691 46.9601 185.351 46.5201 185.271 46.0001C185.191 45.4801 185.271 45.0201 185.511 44.6201C185.751 44.2201 186.051 43.9001 186.411 43.6601C187.611 43.0201 188.331 42.6401 188.571 42.5201C188.691 42.4801 188.831 42.4401 188.991 42.4001C189.151 42.3201 189.311 42.2401 189.471 42.1601C189.631 42.0801 189.771 42.0201 189.891 41.9801C191.491 41.2201 193.231 40.4601 195.111 39.7001C196.751 39.0201 198.931 38.4801 201.651 38.0801C203.011 37.3201 204.171 36.5601 205.131 35.8001C209.011 32.8801 212.391 29.9001 215.271 26.8601C216.071 24.7801 216.731 23.0601 217.251 21.7001C217.411 21.4201 217.591 21.0201 217.791 20.5001C218.031 19.9801 218.251 19.5201 218.451 19.1201C218.651 18.6801 218.831 18.2801 218.991 17.9201C219.951 16.0801 221.171 14.0601 222.651 11.8601C223.891 10.0201 224.891 8.7201 225.651 7.9601C225.771 7.8401 225.911 7.7201 226.071 7.6001C226.231 7.4401 226.391 7.3001 226.551 7.1801C226.751 7.0201 226.911 6.9001 227.031 6.8201C227.111 6.7801 227.251 6.7001 227.451 6.5801C227.691 6.4601 227.851 6.3801 227.931 6.3401C228.051 6.2601 228.191 6.2001 228.351 6.1601C228.551 6.1201 228.731 6.1001 228.891 6.1001C229.051 6.1001 229.231 6.1401 229.431 6.2201C229.831 6.3401 230.131 6.5801 230.331 6.9401C230.451 7.1401 230.511 7.3801 230.511 7.6601C230.511 7.9001 230.491 8.1001 230.451 8.2601C230.411 8.4201 230.311 8.6601 230.151 8.98009C229.991 9.3001 229.891 9.5001 229.851 9.5801C229.531 10.1001 229.191 10.6401 228.831 11.2001C228.511 11.7601 228.191 12.2601 227.871 12.7001C227.591 13.1401 227.231 13.6801 226.791 14.3201C226.351 14.9201 226.011 15.3801 225.771 15.7001C225.531 16.0201 225.131 16.5401 224.571 17.2601C224.051 17.9401 223.691 18.4001 223.491 18.6401C223.331 18.8801 222.931 19.4001 222.291 20.2001C221.691 20.9601 221.331 21.4201 221.211 21.5801C219.211 24.0201 217.691 25.8201 216.651 26.9801C216.371 27.2601 216.091 27.5401 215.811 27.8201C213.011 34.6601 210.991 39.9601 209.751 43.7201C209.751 43.7201 209.311 45.1801 208.431 48.1001C208.311 48.4201 208.191 48.7801 208.071 49.1801C208.511 48.5001 209.051 47.7001 209.691 46.7801C210.051 46.0601 210.251 45.6201 210.291 45.4601C210.131 45.0601 210.351 44.7201 210.951 44.4401C211.551 44.1201 211.951 44.1601 212.151 44.5601C212.151 44.6401 212.171 44.7401 212.211 44.8601C212.251 44.9801 212.271 45.0801 212.271 45.1601C212.311 45.2401 212.331 45.3201 212.331 45.4001C212.331 45.8801 212.131 46.4201 211.731 47.0201C211.371 47.6201 210.911 48.2601 210.351 48.9401C209.791 49.5801 209.431 50.0001 209.271 50.2001C208.991 50.6401 208.771 51.0001 208.611 51.2801C208.451 51.5601 208.331 51.7801 208.251 51.9401C208.171 52.1001 208.051 52.3401 207.891 52.6601C207.731 52.9801 207.531 53.3601 207.291 53.8001L206.271 55.5401L206.211 55.6001C206.051 55.9601 205.811 56.4401 205.491 57.0401C204.611 59.9201 203.871 62.5201 203.271 64.8401C203.271 64.9601 203.271 65.0601 203.271 65.1401C203.271 65.1801 203.251 65.2601 203.211 65.3801C203.211 65.5401 203.211 65.6601 203.211 65.7401C203.211 65.9401 203.231 66.1601 203.271 66.4001C203.271 67.0801 203.211 67.4401 203.091 67.4801C203.011 67.5601 202.371 67.5601 201.171 67.4801C201.131 67.4801 201.131 67.3601 201.171 67.1201C201.211 66.9201 201.271 66.6801 201.351 66.4001C201.351 66.3601 201.351 66.3201 201.351 66.2801C201.351 65.7601 201.431 65.0201 201.591 64.0601C201.591 63.9801 201.611 63.7601 201.651 63.4001C201.731 63.0401 201.791 62.7601 201.831 62.5601C202.111 61.3601 202.771 59.5201 203.811 57.0401C204.051 56.4801 204.551 55.5401 205.311 54.2201C206.431 51.2201 207.211 49.1001 207.651 47.8601C207.731 47.5801 207.831 47.2201 207.951 46.7801C208.111 46.3401 208.231 45.9601 208.311 45.6401C208.391 45.3201 208.491 44.9601 208.611 44.5601C208.771 44.1201 208.911 43.7401 209.031 43.4201C210.111 40.1001 211.851 35.4601 214.251 29.5001C211.411 32.3001 208.591 34.7201 205.791 36.7601C204.751 37.5201 204.151 37.9401 203.991 38.0201C205.631 38.0601 206.751 38.0601 207.351 38.0201C207.591 38.0201 207.751 38.1601 207.831 38.4401C207.951 38.7201 207.951 39.0001 207.831 39.2801C207.751 39.5601 207.591 39.7001 207.351 39.7001ZM228.471 8.2001C228.311 8.2401 228.091 8.3201 227.811 8.4401C227.291 8.7601 226.751 9.2001 226.191 9.7601C225.671 10.3201 225.291 10.7601 225.051 11.0801C224.811 11.3601 224.391 11.9001 223.791 12.7001C222.151 14.8601 220.871 16.7801 219.951 18.4601C219.831 18.7001 219.711 18.9401 219.591 19.1801C219.471 19.4201 219.351 19.6801 219.231 19.9601C219.111 20.2001 218.991 20.4401 218.871 20.6801C218.751 20.8801 218.631 21.1201 218.511 21.4001C218.391 21.6801 218.271 21.9201 218.151 22.1201C217.831 22.9201 217.471 23.8201 217.071 24.8201C217.511 24.3001 218.591 22.9801 220.311 20.8601C222.311 18.4201 224.451 15.3801 226.731 11.7401C226.851 11.5001 226.971 11.2801 227.091 11.0801C227.251 10.8801 227.351 10.7401 227.391 10.6601C227.471 10.5801 227.531 10.5001 227.571 10.4201C227.651 10.3001 227.691 10.2401 227.691 10.2401C227.691 10.2001 227.711 10.1401 227.751 10.0601C227.831 9.9401 227.871 9.8601 227.871 9.8201C227.911 9.7401 227.971 9.6001 228.051 9.4001C228.131 9.2001 228.211 9.0001 228.291 8.8001C228.291 8.6401 228.351 8.4401 228.471 8.2001Z" fill="#FFC46B"/>
<path d="M156.712 39.3998C156.672 39.3198 156.632 39.2398 156.592 39.1598C156.432 39.4798 156.312 39.6998 156.232 39.8198C156.032 40.0998 155.752 40.4398 155.392 40.8398C155.032 41.1998 154.812 41.4398 154.732 41.5598C153.692 42.7998 152.892 43.8798 152.332 44.7998C151.652 45.8398 151.272 46.4198 151.192 46.5398C151.152 46.6198 151.092 46.7598 151.012 46.9598C150.972 47.1198 150.932 47.2398 150.892 47.3198C150.892 47.3198 150.852 47.3998 150.772 47.5598C150.732 47.6798 150.672 47.7798 150.592 47.8598C150.552 47.8998 150.492 47.9198 150.412 47.9198C150.212 47.9198 150.012 47.8798 149.812 47.7998C149.652 47.6798 149.452 47.5598 149.212 47.4398C149.012 47.2798 148.852 47.1798 148.732 47.1398L148.672 47.0798C148.512 46.6798 148.432 46.3398 148.432 46.0598C148.432 45.6198 148.492 45.1598 148.612 44.6798C148.732 44.1598 148.892 43.6198 149.092 43.0598C149.292 42.4598 149.432 41.9998 149.512 41.6798C149.632 41.4398 149.832 41.3398 150.112 41.3798C150.392 41.3798 150.632 41.4798 150.832 41.6798C151.072 41.8798 151.152 42.0998 151.072 42.3398C150.992 42.4998 150.892 42.7398 150.772 43.0598C150.652 43.3398 150.552 43.6198 150.472 43.8998C150.392 44.1798 150.312 44.4398 150.232 44.6798C150.352 44.5598 150.472 44.3998 150.592 44.1998C150.752 43.9598 150.852 43.8198 150.892 43.7798C151.532 42.8598 152.352 41.7598 153.352 40.4798C154.232 39.4398 154.812 38.6398 155.092 38.0798C155.692 37.3598 156.052 36.9798 156.172 36.9398C157.132 36.7398 157.832 37.0798 158.272 37.9598C158.272 37.9598 158.352 38.2198 158.512 38.7398C158.872 39.8198 159.312 40.7398 159.832 41.4998C160.352 42.2598 160.972 42.8598 161.692 43.2998C162.412 43.7398 163.172 44.0798 163.972 44.3198C164.812 44.5598 165.752 44.6998 166.792 44.7398C167.872 44.7398 168.932 44.7198 169.972 44.6798C171.052 44.5998 172.272 44.4798 173.632 44.3198C175.032 44.1598 176.372 43.9998 177.652 43.8398C178.972 43.6798 180.472 43.5398 182.152 43.4198C183.832 43.2598 185.432 43.1798 186.952 43.1798C188.912 42.6198 190.012 42.7598 190.252 43.5998C190.372 44.1198 190.132 44.5398 189.532 44.8598C189.332 44.9398 189.092 44.9798 188.812 44.9798C185.372 44.6998 182.212 44.6798 179.332 44.9198C176.452 45.1198 173.792 45.2798 171.352 45.3998C168.952 45.4798 166.812 45.4598 164.932 45.3398C163.092 45.2198 161.452 44.6798 160.012 43.7198C158.612 42.7598 157.512 41.3198 156.712 39.3998Z" fill="#FFC46B"/>
<path d="M131.554 45.5798C132.714 45.8598 133.754 45.9998 134.674 45.9998C135.634 45.9998 136.754 45.8798 138.034 45.6398C139.354 45.3598 140.494 45.0798 141.454 44.7998C142.454 44.5198 143.574 44.2198 144.814 43.8998C146.054 43.5398 147.094 43.2998 147.934 43.1798C149.574 42.8998 150.434 43.1398 150.514 43.8998C150.594 44.3798 150.354 44.7198 149.794 44.9198C149.514 44.9998 149.234 44.9598 148.954 44.7998C147.634 44.9198 145.654 45.1998 143.014 45.6398C140.414 46.0398 138.774 46.2998 138.094 46.4198C137.814 46.4598 137.214 46.5598 136.294 46.7198C135.414 46.8798 134.634 47.0198 133.954 47.1398C133.314 47.2198 132.614 47.2398 131.854 47.1998C131.094 47.1598 130.514 46.9998 130.114 46.7198C129.394 46.1998 129.394 45.3398 130.114 44.1398C129.834 44.2998 129.594 44.4398 129.394 44.5598C129.234 44.6398 129.094 44.7198 128.974 44.7998C128.894 44.8398 128.814 44.8998 128.734 44.9798C128.694 45.0198 128.654 45.0398 128.614 45.0398C128.614 45.0398 128.594 45.0598 128.554 45.0998C128.514 45.0998 128.494 45.0998 128.494 45.0998C128.494 45.0998 128.434 45.1198 128.314 45.1598C128.234 45.1998 128.154 45.2398 128.074 45.2798C127.994 45.3198 127.854 45.3998 127.654 45.5198C127.454 45.5998 127.234 45.6998 126.994 45.8198C125.714 46.2198 124.514 46.4998 123.394 46.6598C123.354 46.6998 123.214 46.7398 122.974 46.7798C122.734 46.8198 122.554 46.8398 122.434 46.8398C121.914 46.7598 121.454 46.5998 121.054 46.3598C121.054 46.3598 120.994 46.1798 120.874 45.8198C120.874 45.7398 120.874 45.6398 120.874 45.5198C120.834 45.3998 120.814 45.3198 120.814 45.2798C120.814 45.1998 120.814 45.0998 120.814 44.9798C120.894 44.6598 121.054 44.3598 121.294 44.0798C121.534 43.7998 121.714 43.5998 121.834 43.4798C121.994 43.3598 122.314 43.1798 122.794 42.9398C123.274 42.6598 123.534 42.4998 123.574 42.4598C123.694 42.3798 123.894 42.2398 124.174 42.0398C124.454 41.7998 124.714 41.5998 124.954 41.4398C125.194 41.2798 125.414 41.1598 125.614 41.0798C126.134 40.8798 126.894 40.7398 127.894 40.6598C128.934 40.5798 129.634 40.4998 129.994 40.4198C130.394 40.4198 130.594 40.6998 130.594 41.2598C130.594 41.8198 130.394 42.0998 129.994 42.0998C129.834 42.0998 129.454 42.1398 128.854 42.2198C128.254 42.2598 127.754 42.3198 127.354 42.3998C126.954 42.4798 126.574 42.6198 126.214 42.8198C126.094 42.8998 125.934 43.0398 125.734 43.2398C125.574 43.3998 125.454 43.4998 125.374 43.5398C125.294 43.5798 125.214 43.6398 125.134 43.7198C125.054 43.7598 124.954 43.8198 124.834 43.8998C124.754 43.9398 124.694 43.9798 124.654 44.0198C124.574 44.0998 124.354 44.2198 123.994 44.3798C123.674 44.5398 123.434 44.6798 123.274 44.7998C124.234 44.7198 125.294 44.5198 126.454 44.1998C126.694 44.0798 126.934 43.9798 127.174 43.8998C127.454 43.7798 127.614 43.7198 127.654 43.7198C127.694 43.6798 127.774 43.6398 127.894 43.5998C128.014 43.5198 128.094 43.4598 128.134 43.4198C128.174 43.3798 128.294 43.2998 128.494 43.1798C128.734 43.0598 128.974 42.9198 129.214 42.7598C129.294 42.7198 129.494 42.6198 129.814 42.4598C130.134 42.2598 130.374 42.0998 130.534 41.9798C130.814 41.8198 131.194 41.5398 131.674 41.1398C132.154 40.7398 132.534 40.4598 132.814 40.2998C133.174 40.0598 133.514 39.9798 133.834 40.0598C134.154 40.0998 134.414 40.2998 134.614 40.6598C134.814 40.9798 134.834 41.3198 134.674 41.6798C134.594 41.8798 134.494 42.0598 134.374 42.2198C134.294 42.3398 134.234 42.4398 134.194 42.5198C134.154 42.5598 134.014 42.6598 133.774 42.8198C133.574 42.9798 133.434 43.0998 133.354 43.1798C132.914 43.4998 132.314 44.2998 131.554 45.5798Z" fill="#FFC46B"/>
<path d="M86.7888 45.5798C87.9488 45.8598 88.9888 45.9998 89.9088 45.9998C90.8688 45.9998 91.9888 45.8798 93.2688 45.6398C94.5888 45.3598 95.7288 45.0798 96.6888 44.7998C97.6888 44.5198 98.8088 44.2198 100.049 43.8998C101.289 43.5398 102.329 43.2998 103.169 43.1798C104.809 42.8998 105.669 43.1398 105.749 43.8998C105.829 44.3798 105.589 44.7198 105.029 44.9198C104.749 44.9998 104.469 44.9598 104.189 44.7998C102.869 44.9198 100.889 45.1998 98.2488 45.6398C95.6488 46.0398 94.0088 46.2998 93.3288 46.4198C93.0488 46.4598 92.4488 46.5598 91.5288 46.7198C90.6488 46.8798 89.8688 47.0198 89.1888 47.1398C88.5488 47.2198 87.8488 47.2398 87.0888 47.1998C86.3288 47.1598 85.7488 46.9998 85.3488 46.7198C84.6288 46.1998 84.6288 45.3398 85.3488 44.1398C85.0688 44.2998 84.8288 44.4398 84.6288 44.5598C84.4688 44.6398 84.3288 44.7198 84.2088 44.7998C84.1288 44.8398 84.0488 44.8998 83.9688 44.9798C83.9288 45.0198 83.8888 45.0398 83.8488 45.0398C83.8488 45.0398 83.8288 45.0598 83.7888 45.0998C83.7488 45.0998 83.7288 45.0998 83.7288 45.0998C83.7288 45.0998 83.6688 45.1198 83.5488 45.1598C83.4688 45.1998 83.3888 45.2398 83.3088 45.2798C83.2288 45.3198 83.0888 45.3998 82.8888 45.5198C82.6888 45.5998 82.4688 45.6998 82.2288 45.8198C80.9488 46.2198 79.7488 46.4998 78.6288 46.6598C78.5888 46.6998 78.4488 46.7398 78.2088 46.7798C77.9688 46.8198 77.7888 46.8398 77.6688 46.8398C77.1488 46.7598 76.6888 46.5998 76.2888 46.3598C76.2888 46.3598 76.2288 46.1798 76.1088 45.8198C76.1088 45.7398 76.1088 45.6398 76.1088 45.5198C76.0688 45.3998 76.0488 45.3198 76.0488 45.2798C76.0488 45.1998 76.0488 45.0998 76.0488 44.9798C76.1288 44.6598 76.2888 44.3598 76.5288 44.0798C76.7688 43.7998 76.9488 43.5998 77.0688 43.4798C77.2288 43.3598 77.5488 43.1798 78.0288 42.9398C78.5088 42.6598 78.7688 42.4998 78.8088 42.4598C78.9288 42.3798 79.1288 42.2398 79.4088 42.0398C79.6888 41.7998 79.9488 41.5998 80.1888 41.4398C80.4288 41.2798 80.6488 41.1598 80.8488 41.0798C81.3688 40.8798 82.1288 40.7398 83.1288 40.6598C84.1688 40.5798 84.8688 40.4998 85.2288 40.4198C85.6288 40.4198 85.8288 40.6998 85.8288 41.2598C85.8288 41.8198 85.6288 42.0998 85.2288 42.0998C85.0688 42.0998 84.6888 42.1398 84.0888 42.2198C83.4888 42.2598 82.9888 42.3198 82.5888 42.3998C82.1888 42.4798 81.8088 42.6198 81.4488 42.8198C81.3288 42.8998 81.1688 43.0398 80.9688 43.2398C80.8088 43.3998 80.6888 43.4998 80.6088 43.5398C80.5288 43.5798 80.4488 43.6398 80.3688 43.7198C80.2888 43.7598 80.1888 43.8198 80.0688 43.8998C79.9888 43.9398 79.9288 43.9798 79.8888 44.0198C79.8088 44.0998 79.5888 44.2198 79.2288 44.3798C78.9088 44.5398 78.6688 44.6798 78.5088 44.7998C79.4688 44.7198 80.5288 44.5198 81.6888 44.1998C81.9288 44.0798 82.1688 43.9798 82.4088 43.8998C82.6888 43.7798 82.8488 43.7198 82.8888 43.7198C82.9288 43.6798 83.0088 43.6398 83.1288 43.5998C83.2488 43.5198 83.3288 43.4598 83.3688 43.4198C83.4088 43.3798 83.5288 43.2998 83.7288 43.1798C83.9688 43.0598 84.2088 42.9198 84.4488 42.7598C84.5288 42.7198 84.7288 42.6198 85.0488 42.4598C85.3688 42.2598 85.6088 42.0998 85.7688 41.9798C86.0488 41.8198 86.4288 41.5398 86.9088 41.1398C87.3888 40.7398 87.7688 40.4598 88.0488 40.2998C88.4088 40.0598 88.7488 39.9798 89.0688 40.0598C89.3888 40.0998 89.6488 40.2998 89.8488 40.6598C90.0488 40.9798 90.0688 41.3198 89.9088 41.6798C89.8288 41.8798 89.7288 42.0598 89.6088 42.2198C89.5288 42.3398 89.4688 42.4398 89.4288 42.5198C89.3888 42.5598 89.2488 42.6598 89.0088 42.8198C88.8088 42.9798 88.6688 43.0998 88.5888 43.1798C88.1488 43.4998 87.5488 44.2998 86.7888 45.5798Z" fill="#FFC46B"/>
<path d="M60.1357 41.5598C60.0957 41.4798 60.0158 41.3998 59.8958 41.3198C59.8158 41.1998 59.7558 41.0998 59.7158 41.0198C59.5958 41.1398 59.3957 41.2998 59.1157 41.4998C58.8357 41.6998 58.6357 41.8598 58.5157 41.9798C58.2758 42.2198 57.9757 42.6598 57.6157 43.2998C57.2557 43.9398 56.8958 44.3598 56.5358 44.5598C56.1358 44.7998 55.7757 44.8398 55.4557 44.6798C55.1357 44.4798 54.9357 44.2398 54.8557 43.9598C54.8157 43.6398 54.8758 43.3598 55.0358 43.1198C55.5958 42.5998 56.1558 42.0398 56.7158 41.4398C56.8758 41.2798 57.0558 41.0998 57.2558 40.8998C57.3358 40.7798 57.4757 40.6198 57.6757 40.4198C57.9157 40.2198 58.1157 40.0398 58.2757 39.8798C58.4357 39.7198 58.5557 39.5598 58.6357 39.3998C58.6757 39.3198 58.7157 39.2398 58.7557 39.1598C58.7957 39.0398 58.8358 38.9198 58.8758 38.7998C58.9158 38.6798 58.9557 38.5998 58.9957 38.5598C58.9957 38.4398 59.0158 38.3398 59.0558 38.2598C59.0158 37.8998 59.0758 37.5998 59.2358 37.3598C59.2758 37.3198 59.3158 37.2598 59.3558 37.1798C59.3958 37.0998 59.4357 37.0598 59.4757 37.0598C59.3957 36.8998 59.3758 36.7798 59.4158 36.6998C60.1758 35.5398 60.7758 35.3798 61.2158 36.2198C61.5758 37.0598 61.5557 37.8198 61.1557 38.4998C61.1957 38.7398 61.2158 39.1198 61.2158 39.6398C61.2158 39.6798 61.2158 39.6998 61.2158 39.6998C61.4958 40.3798 61.8557 40.9598 62.2957 41.4398C62.7357 41.9198 63.1757 42.3398 63.6157 42.6998C64.0557 43.0198 64.6158 43.2598 65.2958 43.4198C65.9758 43.5798 66.5358 43.7198 66.9758 43.8398C67.4158 43.9198 68.0558 43.9398 68.8958 43.8998C69.7358 43.8598 70.3357 43.8398 70.6957 43.8398C71.0557 43.7998 71.6557 43.6998 72.4957 43.5398C73.3757 43.3798 73.8957 43.2798 74.0557 43.2398C74.2557 43.1998 74.7557 43.0998 75.5557 42.9398C75.8357 42.8598 76.1957 42.8198 76.6357 42.8198C77.0357 42.8198 77.4958 42.8798 78.0158 42.9998C78.4958 42.9598 78.7957 43.2798 78.9157 43.9598C79.0357 44.6398 78.8558 44.9998 78.3758 45.0398C78.2558 45.0398 78.1358 45.0198 78.0158 44.9798C77.9758 44.9798 77.7558 44.9798 77.3557 44.9798C77.2358 45.0198 77.0758 45.0398 76.8758 45.0398C76.7158 45.0398 76.5757 45.0398 76.4557 45.0398C76.2157 45.0798 76.0357 44.9598 75.9157 44.6798C75.7557 44.6798 75.6757 44.6798 75.6757 44.6798C75.0757 44.7198 74.1758 44.7798 72.9758 44.8598C71.7758 44.9398 70.8157 44.9998 70.0957 45.0398C69.3757 45.0798 68.4758 45.0598 67.3958 44.9798C66.3558 44.8998 65.4558 44.7598 64.6958 44.5598C63.9358 44.3198 63.1357 43.9598 62.2957 43.4798C61.4957 42.9598 60.7757 42.3198 60.1357 41.5598ZM61.6357 29.0798C63.3557 28.7998 64.3557 28.6398 64.6357 28.5998C64.8357 28.5598 64.9958 28.6398 65.1158 28.8398C65.2358 29.0398 65.2757 29.2598 65.2357 29.4998C65.1957 29.6998 65.0958 29.8198 64.9358 29.8598H64.8758H64.8157L64.7558 29.9198H64.6958H64.6357H64.5758L64.5157 29.9798H64.4557H64.3958H64.3357L64.2757 30.0398H64.2158H64.1557H64.0958L64.0358 30.0998H63.9757H63.9158H63.8558L63.7957 30.1598H63.7358H63.6757H63.6157L63.5558 30.2198H63.4357H63.3758L63.3157 30.2798H63.2558H63.1958H63.1357L63.0758 30.3398H63.0157H62.9557H62.8958L62.8357 30.3998H62.7757H62.7158H62.6557H62.5957L62.5358 30.4598H62.4757H62.4157H62.3558L62.2957 30.5198H62.2358H62.1757H62.1157L62.0558 30.5798H61.9357C61.7357 30.6198 61.5558 30.5198 61.3958 30.2798C61.2758 30.0398 61.2357 29.7998 61.2757 29.5598C61.3157 29.2798 61.4357 29.1198 61.6357 29.0798Z" fill="#FFC46B"/>
<path d="M9.81962 14.4998C9.93962 13.9398 10.0996 13.3398 10.2996 12.6998C10.5396 12.0198 10.7396 11.3798 10.8996 10.7798C11.0596 10.1398 11.2196 9.3798 11.3796 8.4998C11.6996 6.8598 11.7196 5.7998 11.4396 5.3198C11.4396 5.2798 11.3996 5.2198 11.3196 5.1398C11.2796 5.0998 11.2396 5.0798 11.1996 5.0798C11.1996 5.0398 11.1996 4.9998 11.1996 4.9598C11.2796 4.8398 11.3196 4.7598 11.3196 4.7198C10.9596 4.7998 10.4596 5.2198 9.81962 5.9798C9.37963 6.4998 8.51963 7.7598 7.23963 9.7598C6.91963 10.2398 6.43963 10.2398 5.79963 9.7598C5.19963 9.3198 5.05963 8.8798 5.37963 8.4398C5.53963 8.1998 5.77963 7.8798 6.09963 7.4798C6.45963 7.0398 6.69963 6.7398 6.81963 6.5798C6.89963 6.4598 7.15963 6.0398 7.59963 5.3198C8.07963 4.5998 8.43963 4.0998 8.67963 3.8198C8.95963 3.4998 9.35963 3.1798 9.87963 2.8598C10.4396 2.4998 10.9996 2.3598 11.5596 2.4398C11.5596 2.4398 11.8796 2.5598 12.5196 2.7998V2.8598C12.9996 3.2998 13.2396 3.5198 13.2396 3.5198C14.0396 4.7198 14.1396 6.4998 13.5396 8.8598C13.2596 10.0598 12.5796 12.1198 11.4996 15.0398C8.09963 24.7198 5.69963 33.8398 4.29963 42.3998C3.57963 46.5598 3.09963 50.5198 2.85963 54.2798C2.69963 56.4398 2.73962 58.0198 2.97962 59.0198C3.13963 59.6198 3.29962 59.9398 3.45963 59.9798C3.53962 60.0198 3.61963 60.0598 3.69963 60.0998C3.77962 60.0998 3.81963 60.0998 3.81963 60.0998C3.93963 60.0198 4.05963 59.9398 4.17963 59.8598C4.25963 59.8598 4.41963 59.8198 4.65963 59.7398C4.89963 59.6598 5.05963 59.5798 5.13963 59.4998C6.57963 58.6998 7.93963 57.1198 9.21963 54.7598C11.5796 50.6398 13.2996 47.3198 14.3796 44.7998C14.6596 44.1198 15.1996 42.7398 15.9996 40.6598C16.0396 40.4598 16.5796 38.8998 17.6196 35.9798C18.6996 33.0598 19.2596 31.5598 19.2996 31.4798C19.4996 30.9998 19.7196 30.4998 19.9596 29.9798C20.1996 29.4198 20.3796 28.9998 20.4996 28.7198C20.6596 28.4398 20.7796 28.1598 20.8596 27.8798C20.9396 27.5598 20.9796 27.2998 20.9796 27.0998C20.9796 27.0198 21.5396 25.4198 22.6596 22.2998C22.8196 21.8598 23.0796 21.1798 23.4396 20.2598C23.7996 19.3398 24.0596 18.6398 24.2196 18.1598C24.2996 17.9198 24.3996 17.6398 24.5196 17.3198C24.6396 16.9998 24.7396 16.7198 24.8196 16.4798C24.8996 16.1998 24.9796 15.8998 25.0596 15.5798C25.1796 15.2598 25.2796 14.9598 25.3596 14.6798C25.5996 14.0798 25.8596 13.5398 26.1396 13.0598C26.4596 12.5398 26.7196 12.0798 26.9196 11.6798C27.1196 11.2798 27.2196 10.7598 27.2196 10.1198C27.2596 10.0398 27.2796 9.9598 27.2796 9.8798C27.3196 9.7998 27.3396 9.7398 27.3396 9.6998C27.3796 9.6598 27.4196 9.6198 27.4596 9.5798C27.5396 9.4998 27.5796 9.4198 27.5796 9.3398C27.6996 9.1398 27.8396 9.0198 27.9996 8.9798C28.1596 8.8998 28.3196 8.8998 28.4796 8.9798C28.6796 9.0198 28.8596 9.0998 29.0196 9.2198C29.1796 9.3398 29.3196 9.4798 29.4396 9.6398C29.5996 9.7998 29.7196 9.9398 29.7996 10.0598C29.8796 10.1398 29.9396 10.1998 29.9796 10.2398C30.0596 10.3598 30.0596 10.4998 29.9796 10.6598C29.8996 10.8198 29.7796 10.9798 29.6196 11.1398C29.4996 11.2998 29.4396 11.3998 29.4396 11.4398C29.3596 11.5998 29.2796 11.7798 29.1996 11.9798C29.1196 12.1798 29.0396 12.4198 28.9596 12.6998C28.8796 12.9398 28.7996 13.1798 28.7196 13.4198C28.6396 13.6198 28.5396 13.8798 28.4196 14.1998C28.2996 14.4798 28.2196 14.7198 28.1796 14.9198C28.1396 15.0798 28.0596 15.2998 27.9396 15.5798C27.8596 15.8198 27.8196 15.9398 27.8196 15.9398C26.9396 18.4598 26.1396 20.9798 25.4196 23.4998C24.6996 25.9798 24.0396 28.5198 23.4396 31.1198C22.8396 33.6798 22.3196 36.2398 21.8796 38.7998C21.3596 41.6798 21.0996 44.6198 21.0996 47.6198C21.0996 47.8998 21.1196 48.5598 21.1596 49.5998C21.1996 50.6398 21.2396 51.2598 21.2796 51.4598C21.2796 51.4998 21.2796 51.5598 21.2796 51.6398C21.2796 51.7198 21.2796 51.7998 21.2796 51.8798C21.3196 51.9598 21.3396 51.9998 21.3396 51.9998C21.4196 51.9598 21.5396 51.8998 21.6996 51.8198C21.8996 51.7398 22.0196 51.6998 22.0596 51.6998C22.5796 51.3798 22.9596 51.1198 23.1996 50.9198C23.8396 50.3198 24.8196 49.1998 26.1396 47.5598C27.4596 45.8398 28.8796 43.8998 30.3996 41.7398C31.9596 39.5798 33.1396 37.8998 33.9396 36.6998C34.7396 35.4998 36.1196 33.3998 38.0796 30.3998C40.0396 27.3998 41.2196 25.5998 41.6196 24.9998C43.6996 21.8798 44.7396 20.3198 44.7396 20.3198C44.8996 20.0398 45.0796 19.7398 45.2796 19.4198C45.4796 19.0998 45.6596 18.7998 45.8196 18.5198C46.0196 18.2398 46.1996 17.9598 46.3596 17.6798C46.5596 17.3598 46.7596 17.0398 46.9596 16.7198C47.1596 16.3998 47.3596 16.1198 47.5596 15.8798C48.8396 13.8798 51.6596 9.9598 56.0196 4.1198V4.0598C56.0596 4.0598 56.1196 3.9998 56.1996 3.8798C56.3196 3.7198 56.3996 3.6198 56.4396 3.5798C56.5196 3.4998 56.6196 3.3998 56.7396 3.2798C56.8596 3.1598 56.9596 3.0598 57.0396 2.9798C57.1196 2.8998 57.1996 2.8198 57.2796 2.7398C57.3996 2.6598 57.4996 2.5998 57.5796 2.5598C57.6996 2.4798 57.8196 2.4198 57.9396 2.3798C58.7396 2.0198 59.3796 2.4598 59.8596 3.6998C59.9396 3.8198 59.9596 3.9998 59.9196 4.2398C59.8796 4.4398 59.8396 4.5998 59.7996 4.7198C59.7596 4.8398 59.6996 4.9998 59.6196 5.1998C59.5396 5.3998 59.4996 5.5398 59.4996 5.6198C59.4596 5.6998 59.1996 6.4398 58.7196 7.8398C58.6796 7.9598 58.6196 8.1198 58.5396 8.3198C58.4596 8.4798 58.3996 8.6398 58.3596 8.7998C58.3196 8.9598 58.2596 9.1198 58.1796 9.2798C58.1396 9.4398 58.0796 9.5998 57.9996 9.7598C57.9596 9.9198 57.8996 10.0798 57.8196 10.2398C57.7796 10.3998 57.7196 10.5598 57.6396 10.7198C54.4796 18.9198 52.0196 26.0798 50.2596 32.1998C47.2996 42.6798 47.0596 51.7398 49.5396 59.3798C50.2596 61.6598 51.0996 63.4198 52.0596 64.6598C52.2996 64.9798 52.5396 65.3998 52.7796 65.9198C53.0196 66.4398 53.1196 66.8398 53.0796 67.1198C53.0396 67.4398 52.8796 67.7198 52.5996 67.9598C52.4796 68.0798 52.3396 68.1598 52.1796 68.1998C52.0196 68.2798 51.8596 68.3198 51.6996 68.3198C51.5396 68.3198 51.3796 68.2798 51.2196 68.1998C51.0596 68.1598 50.8996 68.0598 50.7396 67.8998C49.6996 66.6598 48.8196 64.9798 48.0996 62.8598C47.3796 60.7398 46.8396 58.1998 46.4796 55.2398C46.1596 52.3198 46.1796 48.8198 46.5396 44.7398C46.9396 40.6598 47.7196 36.3598 48.8796 31.8398C49.5596 29.1598 50.7396 25.3998 52.4196 20.5598C54.0996 15.7198 55.2396 12.2398 55.8396 10.1198C55.8796 9.9598 55.9196 9.7798 55.9596 9.5798C56.0396 9.3398 56.0996 9.1398 56.1396 8.9798C56.2196 8.7798 56.2796 8.5798 56.3196 8.3798C56.3996 8.1798 56.4596 7.9798 56.4996 7.7798C56.5796 7.5798 56.6396 7.3998 56.6796 7.2398C56.7196 7.1198 56.7396 6.9998 56.7396 6.8798C56.7796 6.7598 56.7996 6.6598 56.7996 6.5798C56.8396 6.4598 56.8796 6.3398 56.9196 6.2198C55.9196 7.3398 54.9396 8.4598 53.9796 9.5798C53.0596 10.6998 52.1396 11.8598 51.2196 13.0598C50.3396 14.2198 49.4996 15.3998 48.6996 16.5998C48.2996 17.1598 47.7596 17.9798 47.0796 19.0598C46.3996 20.0998 45.9796 20.7398 45.8196 20.9798C45.5796 21.3398 45.2996 21.7398 44.9796 22.1798C44.6996 22.6198 44.4396 23.0198 44.1996 23.3798C43.9996 23.6998 43.7596 24.0798 43.4796 24.5198C43.1996 24.9198 42.9396 25.2998 42.6996 25.6598C41.9396 26.8598 40.4596 29.2598 38.2596 32.8598C36.0596 36.4598 34.1596 39.4598 32.5596 41.8598C30.9996 44.2598 29.3796 46.5598 27.6996 48.7598C27.6196 48.8798 27.5196 49.0398 27.3996 49.2398C27.2796 49.4398 27.1596 49.6198 27.0396 49.7798C26.9196 49.9398 26.7596 50.1198 26.5596 50.3198C26.3996 50.5598 26.2396 50.7798 26.0796 50.9798C23.5196 54.2198 21.3796 55.1798 19.6596 53.8598C19.5796 53.7398 19.4196 53.3798 19.1796 52.7798H19.1196C19.0396 51.9398 18.9996 50.9398 18.9996 49.7798C19.0796 45.6998 19.4596 41.8998 20.1396 38.3798C20.2196 38.0998 21.4196 33.2198 23.7396 23.7398C21.9796 28.4198 20.9596 31.1398 20.6796 31.8998C18.6396 37.7398 17.5596 40.8398 17.4396 41.1998C16.5996 43.4798 16.0596 44.9198 15.8196 45.5198C15.7396 45.7598 15.1596 47.0198 14.0796 49.2998C13.9596 49.6198 13.7796 49.9998 13.5396 50.4398C13.3396 50.9198 13.1996 51.2398 13.1196 51.3998C13.0796 51.5598 12.9996 51.7598 12.8796 51.9998C12.7596 52.2398 12.6596 52.3998 12.5796 52.4798C12.5396 52.5998 12.4796 52.7398 12.3996 52.8998C12.3596 53.0598 12.2796 53.2198 12.1596 53.3798C12.0796 53.5398 11.9796 53.7198 11.8596 53.9198C11.7796 54.1198 11.6396 54.3998 11.4396 54.7598C11.2796 55.1198 11.0996 55.4798 10.8996 55.8398C10.7796 55.9998 10.6196 56.2598 10.4196 56.6198C10.2196 56.9798 10.0396 57.2998 9.87963 57.5798C9.71963 57.8998 9.53963 58.1798 9.33963 58.4198C8.41963 59.7398 7.31963 60.8198 6.03963 61.6598C4.79963 62.4998 3.53963 62.5998 2.25963 61.9598C2.13963 61.8798 2.01963 61.7798 1.89963 61.6598C1.77963 61.5398 1.65963 61.3798 1.53963 61.1798C1.41963 61.0198 1.31963 60.8998 1.23963 60.8198C1.23963 60.8198 1.23963 60.7998 1.23963 60.7598C0.959625 59.7198 0.819625 59.1998 0.819625 59.1998C0.699625 58.1198 0.779625 56.3998 1.05962 54.0398C1.77963 48.1998 2.35963 44.2198 2.79963 42.0998C3.39963 39.3398 4.03963 36.5598 4.71963 33.7598C5.43963 30.9598 6.31963 27.6398 7.35963 23.7998C8.39963 19.9598 9.21962 16.8598 9.81962 14.4998Z" fill="#FFC46B"/>
</svg>
